<svg  viewBox="0 0 1106 783" fill="none" xmlns="http://www.w3.org/2000/svg">
<style>
@keyframes heartbeat {
        0% { transform: scale(1); }
        30% { transform: scale(1.25); }
        60% { transform: scale(1); }
        100% { transform: scale(1); }
    }

    #heart {
        animation: heartbeat 1s infinite;
    }

    @keyframes ambulanceMove {
        0%, 100% { transform: translateX(0); }
        50% { transform: translateX(20px); }
    }

    #ambulance {
        animation: ambulanceMove 2s infinite;
    }
</style>
<g id="undraw_medicine_b-1-ol 1" clip-path="url(#clip0_1_2)">
<rect width="1105.04" height="782.74" fill="#FAEBD7"/>
<path id="Vector" opacity="0.1" d="M41.02 535.14C41.27 535.46 41.51 535.82 41.77 536.14H47.06V542.97C47.63 543.65 48.19 544.33 48.77 544.97V536.1H56.77V550.37H53.53C53.85 550.7 54.16 551.05 54.53 551.37H115.36V535.14H41.02ZM66.43 550.37H58.43V536.16H66.43V550.37ZM76.12 550.37H68.12V536.16H76.12V550.37ZM85.81 550.37H77.81V536.16H85.81V550.37ZM95.49 550.37H87.49V536.16H95.49V550.37ZM105.17 550.37H97.17V536.16H105.17V550.37ZM114.85 550.37H106.85V536.16H114.85V550.37Z" fill="#6C63FF"/>
<path id="Vector_2" opacity="0.1" d="M94.41 582.49C95.32 583.01 96.25 583.49 97.19 584.01V583.51H105.19V588.01L106.89 588.8V583.51H114.89V592.16C115.043 592.236 115.204 592.297 115.37 592.34V582.49H94.41Z" fill="#6C63FF"/>
<path id="Vector_3" d="M135.87 445.14H129.6V586.31H135.87V445.14Z" fill="#535461"/>
<path id="Vector_4" d="M175.27 585.88L174.88 592.24L174.32 601.24L174.09 604.98L173.54 613.98L173.3 617.72L172.74 626.72L166.42 728.79C166.145 733.182 164.207 737.304 161.001 740.317C157.794 743.33 153.56 745.008 149.16 745.01H116.3C111.901 745.008 107.668 743.33 104.463 740.316C101.258 737.303 99.3222 733.181 99.05 728.79L92.76 626.65L92.2 617.65L91.97 613.91L91.41 604.91L91.18 601.17L90.62 592.17L90.22 585.81C90.1505 584.586 90.3319 583.361 90.753 582.209C91.174 581.058 91.8259 580.004 92.6687 579.114C93.5115 578.223 94.5273 577.514 95.6538 577.03C96.7804 576.547 97.9939 576.298 99.22 576.3H166.43C167.651 576.311 168.858 576.571 169.975 577.066C171.091 577.561 172.095 578.279 172.923 579.177C173.752 580.075 174.387 581.133 174.791 582.285C175.194 583.438 175.357 584.662 175.27 585.88Z" fill="#3F3D56"/>
<path id="Vector_5" d="M174.88 592.24L174.32 601.21H91.14L90.58 592.24H174.88Z" fill="#9D9CB5"/>
<path id="Vector_6" d="M174.09 604.95L173.54 613.93H91.93L91.37 604.95H174.09Z" fill="#9D9CB5"/>
<path id="Vector_7" d="M173.3 617.68L172.75 626.65H92.72L92.16 617.68H173.3Z" fill="#9D9CB5"/>
<g id="Tree">
<path id="Vector_8" d="M161.23 475.81C138.4 500.9 133.57 533.69 133.57 533.69C133.57 533.69 165.76 525.79 188.57 500.69C211.38 475.59 216.23 442.81 216.23 442.81C216.23 442.81 184.06 450.72 161.23 475.81Z" fill="#33FF00"/>
<g id="Vector_9">
<mask id="path-9-outside-1_1_2" maskUnits="userSpaceOnUse" x="57.28" y="422" width="74" height="56" fill="black">
<rect fill="white" x="57.28" y="422" width="74" height="56"/>
<path d="M58.28 424C58.28 424 83.14 437.8 91.11 449.22C99.08 460.64 130.28 476.06 130.28 476.06"/>
</mask>
<path d="M58.28 424C58.28 424 83.14 437.8 91.11 449.22C99.08 460.64 130.28 476.06 130.28 476.06" fill="black"/>
<path d="M58.28 424C57.3093 425.749 57.3092 425.749 57.3092 425.749C57.3094 425.749 57.3095 425.749 57.3097 425.749C57.3102 425.749 57.3111 425.75 57.3124 425.75C57.3149 425.752 57.3189 425.754 57.3244 425.757C57.3354 425.763 57.3522 425.773 57.3749 425.785C57.4201 425.811 57.4883 425.849 57.5781 425.9C57.7578 426.001 58.0242 426.152 58.3671 426.349C59.053 426.743 60.0445 427.321 61.2604 428.05C63.6934 429.509 67.0179 431.571 70.5857 433.984C77.81 438.87 85.722 444.994 89.4699 450.365L92.7501 448.075C88.528 442.026 80.025 435.54 72.8268 430.671C69.1834 428.207 65.7947 426.105 63.3174 424.619C62.0781 423.876 61.0652 423.286 60.3604 422.881C60.008 422.679 59.7325 422.522 59.5442 422.416C59.45 422.363 59.3776 422.322 59.3283 422.295C59.3036 422.281 59.2847 422.27 59.2717 422.263C59.2652 422.259 59.2602 422.257 59.2567 422.255C59.2549 422.254 59.2536 422.253 59.2526 422.252C59.2521 422.252 59.2516 422.252 59.2513 422.252C59.251 422.252 59.2507 422.251 58.28 424ZM89.4699 450.365C91.6489 453.487 95.3014 456.746 99.3883 459.828C103.511 462.938 108.223 465.976 112.654 468.637C117.09 471.301 121.27 473.602 124.34 475.237C125.876 476.055 127.136 476.708 128.014 477.156C128.452 477.38 128.796 477.554 129.03 477.671C129.147 477.73 129.237 477.775 129.299 477.806C129.329 477.821 129.353 477.832 129.368 477.84C129.376 477.844 129.383 477.847 129.387 477.849C129.389 477.851 129.391 477.851 129.392 477.852C129.392 477.852 129.393 477.852 129.393 477.853C129.394 477.853 129.394 477.853 130.28 476.06C131.166 474.267 131.166 474.267 131.166 474.267C131.166 474.267 131.166 474.267 131.165 474.267C131.165 474.266 131.163 474.266 131.162 474.265C131.158 474.263 131.153 474.261 131.146 474.257C131.132 474.25 131.111 474.239 131.082 474.225C131.025 474.197 130.938 474.154 130.825 474.097C130.599 473.983 130.264 473.814 129.834 473.594C128.974 473.155 127.734 472.513 126.221 471.707C123.192 470.094 119.074 467.827 114.713 465.208C110.348 462.586 105.766 459.628 101.797 456.635C97.7924 453.614 94.5561 450.663 92.7501 448.075L89.4699 450.365Z" fill="#1D1F1B" mask="url(#path-9-outside-1_1_2)"/>
</g>
<g id="Vector_10">
<path d="M-2 464.5C-2 464.5 43.68 489.85 58.33 510.84C72.98 531.83 130.28 560.16 130.28 560.16" fill="#28F616"/>
<path d="M-2 464.5C-2 464.5 43.68 489.85 58.33 510.84C72.98 531.83 130.28 560.16 130.28 560.16" stroke="#535461" stroke-width="2" stroke-miterlimit="10"/>
</g>
<path id="Vector_11" d="M78.53 492.42C115.04 518.84 130.28 560.16 130.28 560.16C130.28 560.16 86.28 558.65 49.76 532.23C13.24 505.81 -1.97 464.5 -1.97 464.5C-1.97 464.5 42.01 466 78.53 492.42Z" fill="#05FF00"/>
<path id="Vector_12" d="M102.1 439.2C121.97 453.57 130.28 476.06 130.28 476.06C130.28 476.06 106.33 475.24 86.45 460.87C66.57 446.5 58.28 424 58.28 424C58.28 424 82.22 424.82 102.1 439.2Z" fill="#61FF00"/>
<g id="Vector_13">
<path d="M216.2 442.37C216.2 442.37 186.46 468.09 178.9 485.81C171.34 503.53 133.52 533.24 133.52 533.24" fill="#40FF10"/>
<path d="M216.2 442.37C216.2 442.37 186.46 468.09 178.9 485.81C171.34 503.53 133.52 533.24 133.52 533.24" stroke="#535461" stroke-width="2" stroke-miterlimit="10"/>
</g>
</g>
<path id="Love" d="M717.51 38H716.76C686.92 38 660.53 53.79 645.35 77.09C630.17 53.79 603.78 38 573.94 38H573.19C550.796 38.2134 529.391 47.256 513.626 63.1627C497.862 79.0695 489.012 100.555 489 122.95C489 150.76 501.18 190.22 524.93 222.69C570.18 284.56 645.35 338.69 645.35 338.69C645.35 338.69 720.52 284.57 765.76 222.69C789.52 190.22 801.69 150.76 801.69 122.95C801.678 100.557 792.829 79.0727 777.067 63.1662C761.305 47.2598 739.902 38.216 717.51 38ZM706.78 227.45C703.382 227.437 700.066 226.397 697.27 224.466C694.473 222.535 692.326 219.803 691.11 216.63H673.27C672.095 216.623 670.952 216.249 670 215.56C669.048 214.872 668.335 213.903 667.96 212.79L662.48 196.28L645.14 256.87C644.802 258.036 644.095 259.062 643.125 259.792C642.155 260.522 640.974 260.918 639.76 260.92H639.41C638.143 260.859 636.935 260.365 635.989 259.52C635.043 258.676 634.415 257.532 634.21 256.28L616.34 148.8L603.28 212.4C602.981 213.608 602.285 214.681 601.304 215.448C600.324 216.215 599.115 216.631 597.87 216.63H572.74C571.987 216.662 571.235 216.541 570.529 216.275C569.824 216.008 569.18 215.602 568.635 215.08C568.091 214.559 567.658 213.932 567.362 213.239C567.066 212.545 566.914 211.799 566.914 211.045C566.914 210.291 567.066 209.545 567.362 208.851C567.658 208.158 568.091 207.531 568.635 207.01C569.18 206.488 569.824 206.082 570.529 205.815C571.235 205.549 571.987 205.428 572.74 205.46H593.47L611.97 119.95C612.274 118.686 613.007 117.566 614.045 116.783C615.083 116 616.36 115.601 617.659 115.655C618.958 115.71 620.198 116.213 621.167 117.081C622.136 117.948 622.773 119.125 622.97 120.41L641.22 230.05L656.76 175.84C657.084 174.698 657.768 173.692 658.71 172.971C659.653 172.25 660.803 171.853 661.99 171.84H662.1C663.275 171.84 664.42 172.212 665.372 172.901C666.324 173.591 667.033 174.563 667.4 175.68L677.31 205.49H690.89C691.855 202.557 693.613 199.947 695.968 197.949C698.323 195.952 701.184 194.643 704.235 194.169C707.287 193.695 710.41 194.073 713.26 195.261C716.111 196.45 718.577 198.403 720.388 200.905C722.198 203.406 723.282 206.36 723.52 209.439C723.758 212.518 723.14 215.603 721.736 218.353C720.331 221.103 718.194 223.412 715.56 225.024C712.926 226.637 709.898 227.49 706.81 227.49L706.78 227.45Z" fill="#FF0000"/>
<g id="Doctor2">
<path id="Vector_14" d="M955.664 676.881C950.92 690.428 952.261 708.711 953.327 717.591C953.721 720.874 954.086 722.871 954.086 722.871C954.086 722.871 946.994 739.068 946.402 739.681C945.811 740.294 925.531 752.704 925.531 752.704L911.357 761C911.357 761 896.976 754.681 903.871 752.506C905.28 751.939 906.548 751.072 907.589 749.965C914.494 743.389 923.164 727.044 923.164 727.044C923.164 727.044 923.756 718.748 925.926 714.802C928.096 710.857 927.307 669.396 927.307 669.396L927.474 601.81V593L954.451 593.198C954.621 596.189 955.01 599.163 955.615 602.097C956.583 607.161 957.838 612.166 959.373 617.088C964.127 632.503 962.154 658.321 955.664 676.881Z" fill="#FFB0B1"/>
<path id="Vector_15" d="M901.76 381.37C901.76 381.37 887.76 396.37 898.36 404.73C908.96 413.09 915.93 405.53 915.93 405.53L901.76 381.37Z" fill="#C7DAF5"/>
<path id="Vector_16" opacity="0.1" d="M1008.09 266.89C1007.12 272.116 1004.76 276.986 1001.26 280.99C997.767 284.993 993.258 287.984 988.21 289.65C987.415 285.085 986.316 280.578 984.92 276.16C984.92 276.16 1004.39 251.01 1004.69 256.1C1004.76 258.03 1006.28 262.31 1008.09 266.89Z" fill="black"/>
<path id="Vector_17" opacity="0.1" d="M1055.3 606.17C1055.3 606.17 1039.3 606.95 1020.22 607.11C1019.68 602.11 1019.56 597.99 1019.56 597.99C1019.56 597.99 1030.34 582.99 1050.1 599.19C1051.68 600.482 1053.07 601.99 1054.23 603.67C1054.54 604.523 1054.9 605.357 1055.3 606.17Z" fill="black"/>
<path id="Vector_18" opacity="0.1" d="M952.88 723.76C952.88 723.76 945.69 740.14 945.09 740.76C944.49 741.38 923.93 753.93 923.93 753.93L909.56 762.32C909.56 762.32 894.98 755.93 901.97 753.73C903.398 753.157 904.685 752.28 905.74 751.16L906.36 755.53L911.15 755.33L952.15 718.44C952.51 721.74 952.88 723.76 952.88 723.76Z" fill="black"/>
<path id="Vector_19" opacity="0.1" d="M1054.89 728.96L1036.13 756.31L1025.95 760.31C1025.95 760.31 1009.58 754.72 1012.57 753.12C1013.32 752.73 1014.49 750.65 1015.83 747.78C1022.76 747.72 1026.35 754.32 1026.35 754.32L1035.13 752.92C1035.13 752.92 1046.71 730.16 1049.31 728.77C1051.91 727.38 1049.71 718.38 1049.71 718.38V716.09C1049.78 716.17 1049.84 716.26 1049.92 716.34V716.4C1052.25 719.944 1053.88 723.907 1054.7 728.07L1054.89 728.96Z" fill="black"/>
<path id="Vector_20" d="M1045.51 744.53L1044.32 758.7L1048.31 757.9L1047.71 742.53L1045.51 744.53Z" fill="#1D2366"/>
<path id="Vector_21" opacity="0.1" d="M953.28 592.6C953.453 595.625 953.847 598.633 954.46 601.6C943.2 599.95 932.75 600.77 925.9 601.31V592.4L953.28 592.6Z" fill="black"/>
<path id="Vector_22" opacity="0.1" d="M901.76 381.37C901.76 381.37 887.76 396.37 898.36 404.73C908.96 413.09 915.93 405.53 915.93 405.53L901.76 381.37Z" fill="black"/>
<path id="Vector_23" d="M1014.87 282.75C1014.87 282.75 1013.23 284.31 1010.76 286.61C1007.24 289.9 1002.03 294.71 997.41 298.74C991.01 304.31 985.73 308.4 987.62 304.91C989.51 301.42 989.15 295.34 988.21 289.65C988.14 289.27 988.08 288.89 988.01 288.52C987.232 284.341 986.2 280.214 984.92 276.16C984.92 276.16 995.26 262.8 1000.98 257.53C1003.11 255.53 1004.6 254.71 1004.69 256.1C1004.79 257.97 1006.19 262.1 1007.93 266.48C1007.98 266.62 1008.03 266.75 1008.09 266.89C1009.25 269.89 1010.56 272.97 1011.71 275.63C1013.47 279.71 1014.87 282.75 1014.87 282.75Z" fill="#FFB0B1"/>
<path id="Vector_24" opacity="0.1" d="M1053.1 582.22C1051.87 586.578 1051.67 591.162 1052.52 595.61C1027.43 597.39 1000.59 590.61 1000.59 590.61C995.59 595.21 982.42 601.99 982.42 601.99L975.24 512.99C970.65 500.99 968.85 438.12 968.85 438.12C968.85 438.12 969.26 434.83 969.85 429.9C969.85 429.78 969.85 429.65 969.9 429.53C971.69 415.76 975.24 389.91 976.98 386.42C979.38 381.62 969.6 368.85 969.6 368.85L974.05 330.9L974.59 326.32C983.97 322.13 991.16 308.75 991.16 308.75L996.68 299.08C1002.68 295.23 1002.99 332.96 1002.99 332.96L996.99 422.05L1016.87 416.56C1016.87 416.56 1056.49 570.84 1053.1 582.22Z" fill="black"/>
<path id="Vector_25" opacity="0.03" d="M1026.35 307.31C1026.35 307.31 1007.58 343.04 1009.76 356.62C1011.94 370.2 1018.14 385.57 1015.15 389.16C1014.12 390.52 1012.79 391.624 1011.27 392.386C1009.74 393.147 1008.06 393.546 1006.36 393.55C1003.36 393.75 995.36 399.34 995.36 399.94C995.36 400.54 987.97 400.54 981.36 403.34C974.75 406.14 964.99 407.73 964.99 407.73C964.99 407.73 945.99 407.13 944.22 408.93C942.45 410.73 940.63 421.5 944.42 430.09C948.21 438.68 952.42 445.09 955.6 446.26C958.78 447.43 978.96 440.67 995.33 439.07C1011.7 437.47 1029.47 424.5 1029.47 424.5C1029.47 424.5 1049.04 417.5 1052.47 405.73C1055.9 393.96 1048.28 329.27 1048.28 329.27C1048.28 329.27 1042.52 299.12 1026.35 307.31Z" fill="black"/>
<path id="Vector_26" d="M956.27 348.63C956.27 348.63 953.88 353.63 949.08 352.82C944.28 352.01 944.29 370.82 944.29 370.82C944.29 370.82 941.1 373.82 938.9 371.22C936.7 368.62 930.9 377.41 930.9 377.41L894.56 379.01C894.56 379.01 910.73 386.4 907.56 408.76C907.56 408.76 962.46 405.36 964.26 400.17C966.06 394.98 956.27 348.63 956.27 348.63Z" fill="white"/>
<path id="Vector_27" opacity="0.03" d="M1023.95 304.31C1023.95 304.31 1005.18 340.05 1007.38 353.62C1009.58 367.19 1015.76 382.57 1012.76 386.17C1011.74 387.532 1010.41 388.637 1008.89 389.399C1007.36 390.161 1005.68 390.558 1003.98 390.56C1000.98 390.76 992.98 396.35 992.98 396.95C992.98 397.55 985.59 397.55 978.98 400.34C972.37 403.13 962.61 404.73 962.61 404.73C962.61 404.73 943.61 404.13 941.85 405.93C940.09 407.73 938.25 418.51 942.05 427.09C945.85 435.67 950.05 442.09 953.23 443.26C956.41 444.43 976.59 437.67 992.96 436.08C1009.33 434.49 1027.1 421.5 1027.1 421.5C1027.1 421.5 1046.66 414.5 1050.05 402.74C1053.44 390.98 1045.86 326.27 1045.86 326.27C1045.86 326.27 1040.12 296.13 1023.95 304.31Z" fill="black"/>
<path id="Vector_28" d="M1003.04 332.91L997.04 422L996.41 431.44L969.86 429.85L968.86 429.79L948.86 428.59L950.21 380.97L955.6 356.97L968.93 322.08L976.86 310.55L986.3 296.92L988.82 293.38C988.82 293.38 990.49 303.56 996.63 299.07L996.76 298.98C1002.76 295.18 1003.04 332.91 1003.04 332.91Z" fill="#1D2366"/>
<path id="Vector_29" opacity="0.1" d="M986.27 296.37L988.79 292.82C988.79 292.82 990.46 303 996.6 298.51C1002.74 294.02 1003.04 332.3 1003.04 332.3L996.45 430.83L948.83 427.98L950.18 380.37L955.57 356.37L968.9 321.48L976.83 309.95L986.27 296.37Z" fill="black"/>
<path id="Vector_30" d="M953.2 718L912.77 754.83L908.073 755.028L907.092 748.087C907.092 748.087 898.875 758.776 880.617 758.181C880.617 758.181 869.654 765.51 885.902 765.906C902.15 766.303 922.899 765.311 922.899 765.311C922.899 765.311 937.393 742.504 949.522 745.478V762.703H953.249V745.32C954.981 744.14 956.46 742.619 957.596 740.846C958.731 739.074 959.501 737.088 959.858 735.007C960.18 732.863 959.952 730.672 959.195 728.643C958.437 726.615 957.176 724.817 955.533 723.424C954.8 722.729 954.214 721.889 953.813 720.956C953.411 720.023 953.203 719.017 953.2 718Z" fill="#1D2366"/>
<path id="Vector_31" d="M895.18 378.96C887.94 379.21 872.3 381.42 880.41 396.55C887.58 409.94 899.63 400.99 906.41 394.2C904.756 387.869 900.737 382.415 895.18 378.96Z" fill="#FFB0B1"/>
<path id="Vector_32" d="M895.6 401.68L886.94 374.37C886.837 374.05 886.799 373.713 886.827 373.379C886.855 373.044 886.949 372.718 887.103 372.42C887.257 372.122 887.469 371.857 887.726 371.641C887.983 371.425 888.28 371.261 888.6 371.16C889.245 370.959 889.942 371.02 890.542 371.331C891.141 371.642 891.593 372.177 891.8 372.82L900.46 400.1L899.6 405.81L895.6 401.68Z" fill="#BE8B87"/>
<path id="Vector_33" d="M1049.48 697.898C1046.87 707.306 1048.29 712.604 1050.08 715.446V715.506C1052.38 719.015 1053.97 722.94 1054.78 727.063L1054.94 727.954L1036.51 755.039L1026.5 759C1026.5 759 1010.42 753.464 1013.36 751.88C1014.1 751.493 1015.24 749.434 1016.56 746.591C1020.49 738.025 1025.91 722.22 1025.91 722.22V722.091C1026.48 715.565 1027.39 709.059 1028.39 702.582C1030.19 690.926 1026.89 662.316 1026.89 662.316C1026.89 662.316 1025.71 627.527 1023.15 619.615C1022 615.592 1021.23 611.466 1020.86 607.295C1020.33 602.344 1020.22 598.264 1020.22 598.264C1020.22 598.264 1030.81 583.409 1050.22 599.452C1051.77 600.731 1053.14 602.225 1054.28 603.888C1067.69 623.12 1056.89 665.485 1056.89 665.485C1056.89 665.485 1054.19 680.895 1049.48 697.898Z" fill="#FFB0B1"/>
<path id="Vector_34" opacity="0.1" d="M1023.36 286.37C1015.68 291.62 1009.24 296.05 1007.98 296.97C1004.54 299.52 997.98 314.49 993.75 322.13C990.38 328.28 979.43 329.86 975.3 330.25L975.83 325.68C985.22 321.48 992.41 308.1 992.41 308.1L1010.97 275.56L1017.36 281.37C1017.36 281.37 1019.76 283.37 1023.36 286.37Z" fill="black"/>
<path id="Vector_35" d="M1026.95 754.91C1026.95 754.91 1021.95 745.73 1012.37 749.12C1012.37 749.12 1006.98 760.12 1001.59 761.9C996.2 763.68 998 769.68 1010.18 767.49C1022.36 765.3 1040.72 763.49 1040.72 763.49L1041.52 752.3L1053.9 736.53C1053.9 736.53 1061.28 729.84 1050.3 716.67V718.96C1050.3 718.96 1052.5 727.96 1049.9 729.35C1047.3 730.74 1035.76 753.51 1035.76 753.51L1026.95 754.91Z" fill="#1D2366"/>
<path id="Vector_36" opacity="0.1" d="M985.82 300.12C984.51 302.12 980.76 312.36 977.63 321.3C974.7 320.16 972.04 312.89 972.04 312.89L987.66 290.67C989.26 292.87 988.21 296.52 985.82 300.12Z" fill="black"/>
<path id="Vector_37" opacity="0.03" d="M957.897 353C957.897 353 955.539 357.906 950.802 357.111C946.065 356.316 946.075 374.773 946.075 374.773C946.075 374.773 942.927 377.717 940.756 375.165C938.585 372.614 932.861 381.239 932.861 381.239L897 382.809C897 382.809 912.957 390.06 909.829 412C909.829 412 964.006 408.664 965.782 403.571C967.558 398.479 957.897 353 957.897 353Z" fill="black"/>
<path id="Vector_38" d="M898.18 404.37C898.265 404.263 898.37 404.175 898.49 404.11C898.56 404.066 898.642 404.042 898.725 404.042C898.808 404.042 898.89 404.066 898.96 404.11C899.028 404.192 899.085 404.283 899.13 404.38C899.196 404.49 899.286 404.584 899.393 404.655C899.501 404.726 899.623 404.772 899.75 404.79L899.6 405.79L898.18 404.37Z" fill="#727A9C"/>
<path id="Vector_39" d="M853 394L862.424 402.263L940 419L930.379 408.919L853 394Z" fill="white"/>
<path id="Vector_40" d="M987.416 304.229C986.122 306.203 982.416 316.31 979.323 325.134C976.744 332.487 974.59 338.952 974.59 338.952C974.59 338.952 969.56 371.662 966.99 377.574C964.421 383.486 965.814 406.543 965.814 406.543L956.239 463.484C956.239 463.484 951.9 492.848 945.2 510.387C938.589 527.65 931.227 535.743 931 536C933.965 531.993 950.122 453.091 950.122 453.091L955.458 353.579C955.458 353.579 956.239 344.124 957.029 336.04C957.82 327.957 973.829 316.922 973.829 316.922L989.264 295C990.816 297.073 989.778 300.685 987.416 304.229Z" fill="white"/>
<path id="Vector_41" d="M946.814 432C946.814 432 924.082 431.005 913.072 417.695C902.062 404.385 938.522 412.383 938.522 412.383L948 414.571L946.814 432Z" fill="#FFB0B1"/>
<path id="Vector_42" d="M1079.85 594.37C1052.5 607.95 1002.79 595.37 1002.79 595.37C997.79 599.97 984.62 606.75 984.62 606.75L977.43 517.75C972.85 505.75 971.05 442.88 971.05 442.88C971.05 442.88 976.83 395.97 979.23 391.18C979.93 389.78 979.59 387.7 978.76 385.46C974.679 374.798 973.179 363.323 974.38 351.97L976.3 335.66L976.83 331.09C986.22 326.89 993.41 313.51 993.41 313.51L998.41 304.75L1007.61 288.61L1011.97 280.97L1012.71 281.64L1018.36 286.76C1018.36 286.76 1020.76 288.76 1024.36 291.76C1032.19 298.36 1045.72 309.98 1052.7 317.09C1058.84 323.35 1060.78 347.7 1061.34 366.03C1061.71 378.1 1061.49 387.56 1061.49 387.56C1055.3 397.75 1071.49 479.56 1071.49 479.56C1075.26 495.37 1079.85 594.37 1079.85 594.37Z" fill="white"/>
<path id="Vector_43" d="M1026.25 310.372C1026.25 310.372 1007.68 345.481 1009.86 358.811C1012.03 372.141 1018.15 387.249 1015.19 390.776C1014.18 392.117 1012.86 393.205 1011.35 393.955C1009.85 394.705 1008.18 395.097 1006.49 395.098C1003.52 395.295 995.608 400.786 995.608 401.365C995.608 401.945 988.306 401.955 981.755 404.705C975.205 407.456 965.557 409.018 965.557 409.018C965.557 409.018 946.757 408.428 945.006 410.197C943.255 411.965 941.454 422.554 945.204 430.983C948.954 439.411 953.12 445.718 956.266 446.867C959.413 448.016 979.381 441.376 995.578 439.804C1011.78 438.232 1029.36 425.492 1029.36 425.492C1029.36 425.492 1048.72 418.615 1052.12 407.053C1055.51 395.491 1048.02 331.944 1048.02 331.944C1048.02 331.944 1042.24 302.376 1026.25 310.372Z" fill="white"/>
<path id="Vector_44" d="M1024 290.674C1016.33 295.857 1009.9 300.231 1008.64 301.15C1005.2 303.658 998.652 318.439 994.427 325.982C991.061 332.055 980.125 333.615 976 334L976.529 329.488C985.908 325.341 993.089 312.129 993.089 312.129L1011.63 280L1018.01 285.717C1018.01 285.717 1020.4 287.672 1024 290.674Z" fill="#DCE7FF"/>
<path id="Vector_45" d="M1009 265.495C1009 271.465 1007.22 277.296 1003.9 282.214C999.966 288.029 994.116 292.218 987.409 294.021C980.702 295.824 973.582 295.121 967.341 292.041C961.1 288.961 956.151 283.706 953.392 277.232C950.633 270.757 950.247 263.491 952.305 256.752C954.362 250.012 958.726 244.246 964.605 240.5C970.484 236.754 977.488 235.276 984.347 236.333C991.206 237.391 997.464 240.915 1001.99 246.265C1006.51 251.616 1009 258.438 1009 265.495Z" fill="#FFB0B1"/>
<path id="Vector_46" d="M987.456 304.249C986.177 306.208 982.515 316.241 979.459 325C976.597 323.893 974 316.76 974 316.76L989.253 295C990.815 297.146 989.79 300.732 987.456 304.249Z" fill="#DCE7FF"/>
<path id="Vector_47" opacity="0.1" d="M889.52 375.867C890.155 375.667 890.842 375.726 891.433 376.03C892.024 376.334 892.469 376.859 892.672 377.49L901.175 404.169L900.537 408.355L901.156 409L902 403.416L893.448 376.737C893.245 376.109 892.801 375.585 892.212 375.281C891.624 374.977 890.939 374.917 890.306 375.114C889.773 375.286 889.314 375.63 889 376.092C889.167 376.002 889.341 375.927 889.52 375.867Z" fill="white"/>
<path id="Vector_48" d="M898 404.618L902 403L901.416 407.918L901.292 409L900.123 407.445L898 404.618Z" fill="#EFC8C4"/>
<path id="Vector_49" d="M1054 599.059C1054 599.059 984.744 602.398 963.635 596.498C942.526 590.597 921.605 595.71 918.453 594.34C915.3 592.971 917.86 571.527 920.627 566.218C923.394 560.908 938.573 507.214 938.573 507.214L953.18 431.307L968.566 427.081L969.654 426.776L996.465 419.408L1016.11 414C1016.11 414 1055.18 566.021 1051.83 577.23C1050.61 581.523 1050.41 586.039 1051.25 590.42C1051.76 593.412 1052.69 596.319 1054 599.059Z" fill="#1D2366"/>
<path id="Vector_50" d="M889 388C889 388 906.491 387.904 902.372 395.023C898.254 402.143 891.819 403 891.819 403L889 388Z" fill="#FFB0B1"/>
<path id="Vector_51" d="M957.133 231.236C958.55 228.359 959.254 225.137 960.948 222.409C963.435 218.456 967.776 215.926 972.235 214.394C983.878 210.391 1008.48 204.579 1015.83 214.394C1017.28 216.37 1018.48 218.565 1020.48 219.929C1022.01 220.966 1023.85 221.411 1025.53 222.192C1030.21 224.386 1033.21 229.17 1034.8 234.052C1036.4 238.935 1036.87 244.173 1038.04 249.204C1039.54 255.658 1042.16 261.776 1044.78 267.855C1047.86 275.03 1051.13 282.473 1057.08 287.543C1065.19 294.462 1066.99 304.257 1074.52 311.847C1083.43 320.861 1083.15 335.736 1078.55 347.548C1077.94 349.099 1077.26 350.72 1077.5 352.371C1077.74 354.021 1078.97 355.524 1080.12 356.838L1085 362.324C1073.47 365.101 1060.42 359.092 1055.04 348.546C1053.39 345.284 1052.29 341.528 1049.46 339.206C1046.92 337.13 1043.51 336.636 1040.35 335.707C1029.93 332.623 1021.19 323.125 1020.86 312.292C1020.7 307.202 1022.3 302.112 1021.57 297.071C1021.17 294.194 1020.03 291.469 1018.25 289.164C1015.53 285.616 1011.42 283.234 1009.2 279.28C1005.44 272.668 1008.29 264.079 1005.59 256.983C1004.76 254.808 1003.09 252.634 1000.76 252.466C998.434 252.298 996.443 254.225 994.213 255.085C989.576 256.884 984.562 253.83 980.687 250.697C976.813 247.564 972.443 244.005 967.508 244.707C964.248 245.162 961.681 247.376 958.679 248.532C956.459 249.382 951.961 250.143 950.018 248.275C945.916 244.509 955.419 234.754 957.133 231.236Z" fill="#591D4B"/>
</g>
<g id="Doctor1" filter="url(#filter0_d_1_2)">
<path id="Vector_52" opacity="0.1" d="M337.6 232.37C336.9 234.15 336.79 237.24 336.98 240.7C331.46 244.024 325.114 245.723 318.672 245.603C312.23 245.483 305.952 243.548 300.56 240.02C300.263 235.106 299.672 230.214 298.79 225.37C298.79 225.37 340 226.28 337.6 232.37Z" fill="black"/>
<path id="Vector_53" opacity="0.1" d="M587.13 469.89C587.32 470.53 587.48 471.17 587.66 471.8C587.5 471.17 587.33 470.53 587.13 469.89ZM109 175.15V179.42H153.67V175.15H109ZM587.13 469.89C587.32 470.53 587.48 471.17 587.66 471.8C587.5 471.17 587.33 470.53 587.13 469.89ZM587.13 469.89C587.32 470.53 587.48 471.17 587.66 471.8C587.5 471.17 587.33 470.53 587.13 469.89Z" fill="#6C63FF"/>
<path id="Vector_54" d="M398.08 446.11L395.92 455.31C395.92 455.31 378.62 446.48 375.5 435.26C372.38 424.04 380.72 419.78 380.72 419.78L396.84 426.61L398.08 446.11Z" fill="white"/>
<path id="Vector_55" opacity="0.1" d="M398.08 446.11L395.92 455.31C395.92 455.31 378.62 446.48 375.5 435.26C372.38 424.04 380.72 419.78 380.72 419.78L396.84 426.61L398.08 446.11Z" fill="black"/>
<path id="Vector_56" d="M300.99 759.22C300.99 759.22 284.99 765.1 273.99 765.84C268.15 766.23 265.08 762.65 263.5 759.2C262.637 757.282 262.08 755.241 261.85 753.15L263.28 737.3L264.04 728.86L287.41 722.79L290.72 732.91L291.03 733.68C292.36 737.06 297.69 750.81 297.53 753.68C297.523 754.415 297.665 755.144 297.947 755.822C298.229 756.501 298.645 757.116 299.17 757.63C299.707 758.235 300.318 758.77 300.99 759.22Z" fill="white"/>
<path id="Vector_57" d="M324.73 285.37C311.53 280.24 294.55 263.29 298.79 255.37C299.732 253.371 300.291 251.214 300.44 249.01C300.713 246.018 300.753 243.009 300.56 240.01C300.263 235.099 299.672 230.21 298.79 225.37C298.79 225.37 340 226.3 337.6 232.37C336.9 234.15 336.79 237.24 336.98 240.7C337.17 244.16 337.67 248.07 338.19 251.38C338.91 255.92 339.63 259.38 339.63 259.38C339.63 259.38 337.11 262.91 335.63 263.1C334.15 263.29 343.67 292.68 324.73 285.37Z" fill="#CF6F80"/>
<path id="Vector_58" d="M410.28 751.16C410.32 751.641 410.273 752.126 410.14 752.59C410.14 752.59 375.92 758.3 368.92 752.59C366.946 750.922 364.646 749.685 362.166 748.958C359.686 748.231 357.082 748.031 354.52 748.37C354.52 748.37 341.28 748.73 339.07 744.37C338.15 742.54 338.39 738.99 338.96 735.49C339.541 732.21 340.316 728.968 341.28 725.78L341.81 725.36L344.96 722.83L381.84 721.74H382.12C381.94 729.28 394.64 737.93 394.64 737.93C408.13 742.93 410.12 748.58 410.28 751.16Z" fill="white"/>
<path id="Vector_59" d="M333.085 158.289C327.778 155.792 321.741 155.32 316.111 156.961C313.282 157.798 310.616 159.157 307.746 159.841C301.618 161.322 294.469 159.718 289.21 163.303C286.289 165.346 284.532 168.573 282.898 171.709L278.813 179.491C276.586 183.75 274.339 188.08 273.41 192.768C272.481 197.456 273.042 202.705 276.014 206.474C278.179 209.221 281.376 210.947 283.725 213.531C285.132 215.103 286.2 216.948 286.861 218.951C287.521 220.955 287.761 223.073 287.565 225.174C290.231 224.152 290.486 220.557 290.547 217.698C290.661 212.639 291.536 207.626 293.142 202.828C294.074 199.662 295.656 196.726 297.788 194.208C298.865 192.96 300.196 191.956 301.691 191.262C303.186 190.568 304.811 190.201 306.459 190.184C310.545 190.327 314.211 193.146 318.255 192.809C321.319 192.553 324.036 190.46 327.12 190.051C329.84 189.794 332.557 190.562 334.739 192.206C336.898 193.844 338.79 195.808 340.346 198.027C345.922 205.371 350.447 213.98 350.712 223.192C351.866 224.04 353.531 222.937 354.103 221.63C354.675 220.322 354.695 218.791 355.42 217.545C356.258 216.105 357.861 215.339 359.118 214.256C362.304 211.509 363.101 206.882 362.978 202.685C362.856 198.487 362.039 194.228 362.835 190.102C363.315 187.569 364.398 185.2 364.99 182.698C365.582 180.196 365.654 177.387 364.255 175.232C362.212 172.066 357.912 171.443 354.164 171.147C349.905 170.779 346.096 171.249 343.379 167.664C342.104 165.794 340.669 164.037 339.09 162.415C338.549 161.884 333.085 158.513 333.085 158.289Z" fill="#512E4E"/>
<path id="Vector_60" opacity="0.1" d="M382.13 722.79C382.13 722.79 373.13 722.6 368.33 726.84C363.53 731.08 340.33 727.76 341.33 726.84C341.626 726.384 341.805 725.862 341.85 725.32L345 722.79L381.88 721.7C382.02 722.37 382.13 722.79 382.13 722.79Z" fill="black"/>
<path id="Vector_61" opacity="0.1" d="M291 733.68L290.69 734.02C278.37 719.12 263.47 737.69 263.47 737.69L263.25 737.3L264.01 728.86L287.38 722.79L290.69 732.91L291 733.68Z" fill="black"/>
<path id="Vector_62" d="M353.53 210.27C353.538 213.873 352.971 217.455 351.85 220.88C349.345 228.554 344.207 235.095 337.346 239.347C330.484 243.599 322.34 245.288 314.353 244.117C306.367 242.945 299.051 238.988 293.7 232.944C288.348 226.901 285.306 219.16 285.11 211.09C285.11 210.81 285.11 210.55 285.11 210.27C285.032 205.728 285.86 201.215 287.545 196.996C289.229 192.777 291.737 188.935 294.922 185.696C298.107 182.456 301.905 179.883 306.095 178.126C310.284 176.37 314.782 175.465 319.325 175.465C323.868 175.465 328.366 176.37 332.555 178.126C336.745 179.883 340.543 182.456 343.728 185.696C346.913 188.935 349.421 192.777 351.105 196.996C352.79 201.215 353.618 205.728 353.54 210.27H353.53Z" fill="#CF6F80"/>
<path id="Vector_63" opacity="0.1" d="M324.73 285.37C311.53 280.24 294.55 263.29 298.79 255.37C299.732 253.371 300.291 251.214 300.44 249.01L318.51 263.86L329.69 273.03L338.19 251.39C338.91 255.93 339.63 259.39 339.63 259.39C339.63 259.39 337.11 262.92 335.63 263.11C334.15 263.3 343.67 292.68 324.73 285.37Z" fill="black"/>
<path id="Vector_64" opacity="0.1" d="M341.84 610.95C338.179 611.573 334.487 611.993 330.78 612.21C330.56 607.21 330.43 603.77 330.43 603.77L341.55 601.53L341.84 610.95Z" fill="black"/>
<path id="Vector_65" d="M371.46 351L356.37 604.5L336.69 605.79L285.73 458.8L294.09 284.29L295.85 247.42L318.51 266.03L329.7 275.2L338.45 252.93L354.72 267.11L371.46 351Z" fill="#6C63FF"/>
<path id="Vector_66" opacity="0.1" d="M306.33 605.78C305.66 607.437 305.151 609.155 304.81 610.91C290.49 608.699 276.582 604.354 263.55 598.02L263.28 597.88L263.37 596.27L263.42 595.43L268.42 586.11C268.42 586.11 308.73 599.91 306.33 605.78Z" fill="black"/>
<path id="Vector_67" opacity="0.1" d="M371.04 604.95C363.93 606.8 352.95 608.88 343.12 607.58L342.98 601.24L369.8 595.86C369.8 595.86 370.54 600.81 371.04 604.95Z" fill="black"/>
<path id="Vector_68" opacity="0.1" d="M330.79 320.46C326.38 318.62 303.02 291.95 303.02 291.95V285.88C302.17 283.88 297.12 285.1 293.02 286.5L294.78 249.63L296.78 251.29C301.16 266.75 330.28 319.57 330.79 320.46Z" fill="black"/>
<path id="Vector_69" opacity="0.1" d="M342.94 608.74C301.94 615.74 264.39 595.67 264.39 595.67L264.75 588.87C264.75 588.87 265.68 511.78 263.1 505.87C260.52 499.96 258.51 469.99 259.97 465.39C261.43 460.79 254.64 391.81 254.64 391.81L253.54 363.81L213.28 347.5L231.28 309.98C233.711 304.72 235.802 299.308 237.54 293.78C240.67 284.04 255.2 274.47 255.2 274.47C255.2 274.47 270.1 264.91 275.99 265.27C281.88 265.63 289.6 256.81 289.6 256.81C295.3 242.28 300.46 248.86 300.46 248.86C300.46 249.55 300.46 248.86 300.18 251.01C298.18 266.96 332.52 317.36 333.01 318.25L336.28 397.91L339.59 498.72L342.94 608.74Z" fill="black"/>
<path id="Vector_70" opacity="0.1" d="M326.32 380.62C327.811 380.62 329.02 379.411 329.02 377.92C329.02 376.429 327.811 375.22 326.32 375.22C324.829 375.22 323.62 376.429 323.62 377.92C323.62 379.411 324.829 380.62 326.32 380.62Z" fill="black"/>
<path id="Vector_71" opacity="0.1" d="M264.39 451.26C264.94 451.26 292.9 448.32 292.9 448.32C292.9 448.32 309.83 481.61 308.72 489.71C307.61 497.81 305.6 504.98 298.79 503.71C291.98 502.44 262.14 504.71 262.14 504.71L264.39 451.26Z" fill="black"/>
<path id="Vector_72" d="M331.9 318.25C327.48 316.41 304.12 289.74 304.12 289.74V283.67C303.27 281.67 298.22 282.89 294.12 284.29L295.89 247.42L297.89 249.08C302.28 264.54 331.41 317.37 331.9 318.25Z" fill="white"/>
<path id="Vector_73" d="M284.35 433.42C284.35 433.42 310.01 447.21 310.56 451.42C311.11 455.63 297.5 449.58 294.56 448.85C292.625 448.384 290.655 448.076 288.67 447.93L269.06 448.46L284.35 433.42Z" fill="#CF6F80"/>
<path id="Vector_74" opacity="0.1" d="M323.63 322.18C325.121 322.18 326.33 320.971 326.33 319.48C326.33 317.989 325.121 316.78 323.63 316.78C322.139 316.78 320.93 317.989 320.93 319.48C320.93 320.971 322.139 322.18 323.63 322.18Z" fill="black"/>
<path id="Vector_75" d="M323.63 321.08C325.121 321.08 326.33 319.871 326.33 318.38C326.33 316.889 325.121 315.68 323.63 315.68C322.139 315.68 320.93 316.889 320.93 318.38C320.93 319.871 322.139 321.08 323.63 321.08Z" fill="#3F3D56"/>
<path id="Vector_76" d="M328.6 437.95C330.091 437.95 331.3 436.741 331.3 435.25C331.3 433.759 330.091 432.55 328.6 432.55C327.109 432.55 325.9 433.759 325.9 435.25C325.9 436.741 327.109 437.95 328.6 437.95Z" fill="#3F3D56"/>
<path id="Vector_77" opacity="0.1" d="M328.6 439.06C330.091 439.06 331.3 437.851 331.3 436.36C331.3 434.869 330.091 433.66 328.6 433.66C327.109 433.66 325.9 434.869 325.9 436.36C325.9 437.851 327.109 439.06 328.6 439.06Z" fill="black"/>
<path id="Vector_78" d="M383.52 733.776C383.52 733.776 374.283 733.582 369.357 737.868C364.43 742.154 340.619 738.809 341.645 737.868C342.672 736.927 342.59 729.96 342.59 729.96C328.621 710.953 340.537 703.239 340.537 703.239C340.537 703.239 334.297 673.316 333.168 662.217C332.378 654.462 331.403 633.624 330.879 621.726C330.653 616.611 330.52 613.092 330.52 613.092L341.933 610.8L343.401 610.504L370.927 605C370.927 605 371.686 610.115 372.2 614.299C372.455 616.086 372.599 617.886 372.631 619.69C372.446 621.736 372.631 628.14 372.631 628.14L373.565 647.342C372.954 649.356 372.64 651.448 372.631 653.552C372.815 655.997 376.397 691.004 376.397 691.004C376.397 691.004 382.627 711.894 380.503 713.398C378.378 714.902 383.52 733.776 383.52 733.776Z" fill="#6C63FF"/>
<path id="Vector_79" d="M326.32 379.52C327.811 379.52 329.02 378.311 329.02 376.82C329.02 375.329 327.811 374.12 326.32 374.12C324.829 374.12 323.62 375.329 323.62 376.82C323.62 378.311 324.829 379.52 326.32 379.52Z" fill="black"/>
<path id="Vector_80" d="M388.56 447.37C388.56 447.37 390.4 450.13 388.56 451.42C386.72 452.71 388.74 455.83 388.74 455.83C388.74 455.83 384.15 458.52 386.17 460.94C388.19 463.36 386.91 474.29 386.91 474.29L381.39 483.43C381.39 483.43 381.72 489.32 381.74 497.28C381.74 509.7 381.01 527.16 376.97 535.12L377.53 600.43C377.53 600.43 358.2 607.49 342.02 605.34L339.62 500.54C339.62 500.54 343.12 441.11 344.41 429.71C345.165 423.792 345.472 417.825 345.33 411.86C345.33 411.86 344.78 394.02 342.93 385.74C342.93 385.74 340.93 349.87 340.73 339.94C340.64 335.19 340.89 321.33 341.17 308.15C341.48 293.74 341.83 280.15 341.83 280.15L338.18 251.27C338.18 251.27 341.83 250.9 342.93 252.37C343.423 252.83 343.959 253.242 344.53 253.6C350.83 257.86 373.09 270.96 373.09 270.96C373.09 270.96 385.41 275.86 388.36 282.88C391.31 289.9 393.36 294.88 394.79 296.88C396.22 298.88 397 308.28 397 308.28C397 308.28 401.24 325.58 404.55 328.51C407.86 331.44 410.28 350.08 410.28 350.08L381.03 373.08C381.03 373.08 378.46 411.34 377.91 412.82C377.36 414.3 388.56 447.37 388.56 447.37Z" fill="white"/>
<path id="Vector_81" opacity="0.1" d="M354.64 288.67L357.28 296.37L343.38 310.37C343.69 295.97 344.04 282.37 344.04 282.37L339.22 253.1C339.22 253.1 344.04 253.1 345.15 254.59C345.637 255.054 346.173 255.464 346.75 255.81L358.57 289.91L354.64 288.67Z" fill="black"/>
<path id="Vector_82" d="M354.357 289.282L357.063 297.146L342.867 311.444C343.184 296.727 343.541 282.847 343.541 282.847L338.608 252.954C338.608 252.954 343.541 252.954 344.664 254.476C345.165 254.948 345.713 255.369 346.299 255.732L358.381 290.548L354.357 289.282Z" fill="white"/>
<path id="Vector_83" d="M306.414 615.201C305.723 616.896 305.198 618.654 304.847 620.448C303.988 625.364 303.749 630.367 304.136 635.341C304.517 642.501 304.136 690.483 304.136 690.483C304.136 690.483 295.983 703.279 291.438 707.789C286.892 712.3 300.714 720.401 300.714 720.401C302.775 732.062 290.283 745.236 290.283 745.236C277.585 729.995 262.227 749 262.227 749C262.227 749 253.879 734.68 251.797 729.566C249.715 724.452 259.95 720.913 263.547 718.836C267.144 716.76 263.372 704.516 263.372 704.516C263.372 704.516 260.331 693.787 256.723 683.998C253.116 674.209 260.702 625.481 260.702 625.481C260.702 625.481 261.094 616.828 262.032 613.81C262.505 611.633 262.599 609.391 262.31 607.182C262.248 606.435 262.176 605.812 262.124 605.392C262.073 604.973 262.032 604.778 262.032 604.778L262.176 604.533L267.329 595C267.329 595 308.887 609.197 306.414 615.201Z" fill="#6C63FF"/>
<path id="Vector_84" d="M261.836 455.024C262.402 455.024 291.183 452 291.183 452C291.183 452 308.599 486.251 307.467 494.572C306.335 502.893 304.245 510.278 297.246 508.971C290.246 507.665 259.52 510 259.52 510L261.836 455.024Z" fill="url(#paint0_linear_1_2)"/>
<path id="Vector_85" d="M342.52 618.485C300.474 625.641 261.955 605.124 261.955 605.124L262.334 598.172C262.334 598.172 263.288 519.363 260.632 513.321C257.976 507.28 255.925 476.641 257.432 471.939C258.94 467.236 251.966 396.718 251.966 396.718L250.828 368.094L209.52 351.359L227.979 313.002C230.467 307.622 232.611 302.091 234.399 296.441C237.599 286.484 252.51 276.7 252.51 276.7C252.51 276.7 267.79 266.927 273.82 267.295C279.85 267.663 287.778 258.647 287.778 258.647C293.633 243.793 300.084 250.519 300.084 250.519C300.084 251.225 299.469 251.542 299.797 252.717C304.309 268.532 331.834 320.547 332.337 321.457L335.731 402.893L339.126 505.951L342.52 618.485Z" fill="white"/>
<path id="Vector_86" d="M391.312 453.409C391.312 453.409 393.186 456.224 391.312 457.54C389.438 458.856 391.486 462.039 391.486 462.039C391.486 462.039 386.817 464.813 388.865 467.282C390.913 469.751 389.622 480.9 389.622 480.9L383.971 490.224C383.971 490.224 384.308 496.232 384.339 504.352C384.339 517.022 383.592 534.833 379.455 542.953L380.018 609.576C380.018 609.576 360.196 616.778 343.65 614.584L341.203 507.678C341.203 507.678 344.786 447.053 346.107 435.424C346.881 429.387 347.192 423.3 347.039 417.216C347.039 417.216 346.476 399.017 344.592 390.571C344.592 390.571 342.544 353.98 342.329 343.85C342.237 339.005 342.503 324.866 342.779 311.421C343.097 296.721 343.455 282.858 343.455 282.858L338.52 253C338.52 253 343.455 253 344.592 254.52C345.091 254.995 345.641 255.416 346.23 255.775C352.68 260.12 375.482 273.484 375.482 273.484C375.482 273.484 388.087 278.482 391.107 285.643C394.128 292.804 396.227 297.884 397.701 299.925C399.175 301.965 399.953 311.554 399.953 311.554C399.953 311.554 404.295 329.201 407.684 332.19C411.073 335.179 413.52 354.153 413.52 354.153L383.571 377.615C383.571 377.615 380.94 416.644 380.366 418.154C379.793 419.664 391.312 453.409 391.312 453.409Z" fill="white"/>
<path id="Vector_87" opacity="0.1" d="M404 368.369L411.073 354C411.073 354 413.886 364.951 413.886 370.801C413.886 376.651 417.82 377.226 417.82 377.226C417.82 377.226 422.131 382.357 419.858 386.093C417.586 389.829 416.668 399.127 416.668 399.127C416.668 399.127 417.412 416.873 414.039 419.325C410.665 421.778 409.962 427.639 409.962 427.639C409.962 427.639 403.766 438.774 403.959 441.422C404.153 444.07 395.337 462 395.337 462C395.337 462 399.648 439.719 374.526 430.092C374.526 430.092 374.332 422.528 376.207 420.454C378.083 418.381 381.008 417.437 379.173 406.958C377.339 396.48 378.643 383.958 378.643 381.444C378.643 378.929 384.269 363.247 384.269 363.247L404 368.369Z" fill="black"/>
<path id="Vector_88" d="M388.889 467.317C390.936 469.818 389.646 481.056 389.646 481.056L383.995 490.461C383.995 490.461 384.333 496.523 384.364 504.714L374.689 507.75C373.848 508.012 372.957 508.069 372.09 507.916C371.223 507.762 370.404 507.403 369.703 506.867C369.002 506.332 368.439 505.636 368.059 504.837C367.68 504.038 367.496 503.16 367.523 502.275L369.171 449L391.346 457.521C389.452 458.838 391.52 462.059 391.52 462.059C391.52 462.059 386.841 464.827 388.889 467.317Z" fill="white"/>
<path id="Vector_89" d="M212.748 349L209.916 351.248L206.52 381.711C206.52 381.711 208.408 395.241 208.028 397.315C207.649 399.39 215.775 417.988 215.775 417.988C215.775 417.988 242.574 465.547 253.522 468L290.52 441.676L280.701 429.27C280.701 429.27 277.305 427.952 276.453 429.27C276.453 429.27 258.242 398.061 256.354 395.803C254.466 393.545 254.845 389.038 254.845 389.038C254.845 389.038 252.014 386.034 252.958 383.213C253.901 380.393 247.479 370.613 247.479 370.613L253.327 365.166L212.748 349Z" fill="white"/>
<path id="Vector_90" opacity="0.1" d="M387.77 462.08C389.77 464.51 388.51 475.42 388.51 475.42L382.99 484.56C382.99 484.56 383.32 490.46 383.34 498.41L374.06 501.31C373.221 501.572 372.332 501.63 371.467 501.478C370.601 501.326 369.785 500.97 369.085 500.439C368.385 499.907 367.823 499.216 367.444 498.423C367.066 497.63 366.883 496.758 366.91 495.88L368.51 444.27L390.16 452.55C388.32 453.83 390.34 456.97 390.34 456.97C390.34 456.97 385.75 459.65 387.77 462.08Z" fill="black"/>
<path id="Vector_91" opacity="0.1" d="M271.43 710.93C271.43 710.93 281.09 704.86 287.43 709.27C293.77 713.68 271.43 710.93 271.43 710.93Z" fill="black"/>
<path id="Vector_92" d="M394.45 436.37C394.45 436.37 392.98 445.76 389.3 446.31C385.62 446.86 383.97 461.5 380.3 460.98C376.63 460.46 379.06 447.37 379.19 444.83C379.32 442.29 375.19 431.77 378.28 429.38C381.37 426.99 391.15 429.38 391.15 429.38L394.45 436.37Z" fill="#CF6F80"/>
<path id="Vector_93" d="M406.9 352L413.071 354.052C413.071 354.052 415.892 364.997 415.892 370.845C415.892 376.692 419.822 377.266 419.822 377.266C419.822 377.266 424.13 382.395 421.859 386.129C419.588 389.863 418.682 399.158 418.682 399.158C418.682 399.158 419.425 416.894 416.055 419.346C412.684 421.798 411.931 427.655 411.931 427.655C411.931 427.655 405.75 438.785 405.943 441.432C406.137 444.079 397.318 462 397.318 462C397.318 462 401.636 439.729 376.525 430.107C376.525 430.107 376.342 422.547 378.215 420.474C380.089 418.402 383.011 417.458 381.178 406.985C379.346 396.511 380.649 383.996 380.649 381.482C380.649 378.969 386.27 363.294 386.27 363.294L406.9 352Z" fill="white"/>
</g>
</g>
<defs>
<filter id="filter0_d_1_2" x="105" y="156" width="612.06" height="617.869" filterUnits="userSpaceOnUse" color-interpolation-filters="sRGB">
<feFlood flood-opacity="0" result="BackgroundImageFix"/>
<feColorMatrix in="SourceAlpha" type="matrix" values="0 0 0 0 0 0 0 0 0 0 0 0 0 0 0 0 0 0 127 0" result="hardAlpha"/>
<feOffset dy="4"/>
<feGaussianBlur stdDeviation="2"/>
<feComposite in2="hardAlpha" operator="out"/>
<feColorMatrix type="matrix" values="0 0 0 0 0 0 0 0 0 0 0 0 0 0 0 0 0 0 0.25 0"/>
<feBlend mode="normal" in2="BackgroundImageFix" result="effect1_dropShadow_1_2"/>
<feBlend mode="normal" in="SourceGraphic" in2="effect1_dropShadow_1_2" result="shape"/>
</filter>
<linearGradient id="paint0_linear_1_2" x1="283.52" y1="452" x2="283.52" y2="510" gradientUnits="userSpaceOnUse">
<stop offset="0.1875" stop-color="#C35555"/>
<stop offset="1" stop-color="#D9D9D9" stop-opacity="0"/>
</linearGradient>
<clipPath id="clip0_1_2">
<rect width="1105.04" height="782.74" fill="white"/>
</clipPath>
</defs>
</svg>
