<svg viewBox="0 0 500 500" fill="none" xmlns="http://www.w3.org/2000/svg">
<style>
#Man
{
     animation: man 1s linear Infinite;
    transform-box: fill-box;
transform-origin: bottom;
}
@keyframes man{
    from{
       transform:rotatex(0deg);
 
    }
    to{
        transform:rotatex(15deg);
     
    }
}
#phone
{
     animation: phone 1s linear Infinite;
    transform-box: fill-box;
transform-origin:center;
}
@keyframes phone{
    from{
         transform:rotate(0deg);
 
    }
    to{
          transform:rotate(5deg);
     
    }
}
#objecta
{
 animation: obj 1s linear Infinite;
    transform-box: fill-box;
transform-origin:bottom;
}
@keyframes obj{
    from{
       transform:rotatex(20deg);
 
    }
    to{
        transform:rotatex(0deg);
     
    }
}
#Treea
{
 animation: tree 1s linear Infinite;
    transform-box: fill-box;
transform-origin: bottom;
}
@keyframes tree{
    from{
       transform:rotatey(0deg);
        scale:0.8;
    }
    to{
        transform:rotatey(15deg);
             scale:1.2;
    }
}


</style>
<rect width="500" height="500" fill="#F5F5F5"/>
<g id="7744150_3720927 1" clip-path="url(#clip0_0_1)">
<g id="BACKGROUND">
<path id="XMLID_106_" d="M500 11H0V511H500V11Z" fill="#F7F7F7"/>
</g>
<g id="OBJECT">
<g id="XMLID_128_">
<g id="Treea">
<path id="XMLID_57_" d="M225.293 355.61C225.293 355.61 212.293 351.61 199.626 335.277C186.959 318.944 203.293 317.944 212.959 329.277C222.626 340.61 225.959 328.61 213.959 316.61C201.959 304.61 199.292 281.61 208.626 280.943C217.959 280.276 222.293 302.276 226.293 305.276C230.293 308.276 223.293 271.609 231.96 269.276C240.627 266.943 246.293 279.609 243.293 298.943C240.293 318.277 252.293 286.276 259.293 287.276C266.293 288.276 261.626 308.943 248.96 322.609C236.293 336.276 261.293 317.942 266.627 327.276C271.959 336.61 248.959 368.943 225.293 355.61Z" fill="#31892A"/>
</g>
<path id="XMLID_47_" d="M278.5 418.943C278.5 418.943 236.5 433.443 192 418.943V369.943C192 360.278 199.835 352.443 209.5 352.443H261C270.665 352.443 278.5 360.278 278.5 369.943V418.943Z" fill="#7E302B"/>
</g>
<g id="Man">
<path id="XMLID_21_" d="M80.6114 303.352C80.6114 303.352 78.6274 318.382 85.3604 325.112C92.0934 331.842 127.781 319.004 127.781 319.004L126.349 310.291C126.349 310.291 96.2284 314.563 94.4314 311.468C92.6334 308.373 95.6354 298.741 95.6354 298.741L80.6114 303.352Z" fill="#E05D3F"/>
<path id="XMLID_20_" d="M126.349 310.292C126.349 310.292 131.02 306.91 135.051 307.417C139.083 307.924 141.946 308.452 141.342 309.802C140.738 311.151 136.569 310.638 136.569 310.638C136.569 310.638 140.775 313.625 142.541 314.109C144.307 314.593 147.008 312.367 147.715 313.563C148.422 314.759 146.375 316.119 144.207 317.061C144.207 317.061 139.739 320.52 137.72 321.194C135.701 321.868 127.369 318.988 127.369 318.988C127.369 318.988 121.909 313.066 126.349 310.292Z" fill="#E05D3F"/>
<path id="XMLID_16_" d="M114.284 402.485L118.653 414.744L129.504 412.123L126.9 398.056L114.284 402.485Z" fill="#FF7954"/>
<path id="XMLID_13_" d="M104.762 370.86L114.758 405.428L131 404.179L124.337 366.071L104.762 370.86Z" fill="#5B7003"/>
<path id="XMLID_8_" d="M144.991 404.918L151.148 417.506L161.612 412.821L158.644 399.077L144.991 404.918Z" fill="#FF7954"/>
<path id="XMLID_2_" d="M71.2364 271.739C61.6574 285.066 54.3694 316.302 57.9094 346.08L114.446 346.601C114.446 346.601 105.978 295.571 102.264 278.351C98.8284 262.42 75.9514 265.179 71.2364 271.739Z" fill="#D9AA00"/>
<path id="XMLID_1_" d="M98.4184 228.272C98.4184 228.272 103.048 229.545 103.627 237.533C104.206 245.52 107.91 245.057 107.91 245.057C107.91 245.057 108.72 258.717 103.511 261.032C98.3024 263.347 95.0614 262.074 95.0614 262.074L93.7884 268.209L80.5914 267.283C80.5914 267.283 76.6554 235.681 79.6654 230.587C82.6754 225.494 92.8614 226.536 98.4184 228.272Z" fill="#FF7954"/>
<path id="XMLID_3_" d="M102.315 228.735C102.315 228.735 102.701 235.681 94.9064 236.298C94.9064 236.298 96.0644 241.546 92.5144 244.864C92.5144 244.864 91.2794 239.925 87.7294 241.623C84.1794 243.321 87.6524 255.668 91.6654 253.971L88.2694 260.222L79.9344 260.299C79.9344 260.299 56.2424 240.697 73.6834 229.121C73.6834 229.121 74.0694 221.867 85.4134 220.246C96.7594 218.625 102.701 225.417 102.315 228.735Z" fill="#201900"/>
<path id="XMLID_5_" d="M109.725 304.34C109.725 304.34 119.431 315.987 128.942 315.599C138.454 315.211 153.206 280.27 153.206 280.27L145.83 275.417C145.83 275.417 128.554 300.458 125.06 299.681C121.566 298.905 116.519 290.169 116.519 290.169L109.725 304.34Z" fill="#FF7954"/>
<path id="XMLID_4_" d="M80.0124 264.543C80.0124 264.543 94.2124 264.543 97.4534 270.177L77.4654 269.174L80.0124 264.543Z" fill="#201900"/>
<path id="XMLID_6_" d="M107.881 308.319L119.965 291.577C119.965 291.577 108.318 272.796 99.1464 270.758C89.9744 268.72 97.1084 300.894 107.881 308.319Z" fill="#FFE76C"/>
<path id="XMLID_7_" d="M145.83 275.417C145.83 275.417 146.509 269.691 149.615 267.07C152.721 264.449 155.05 262.702 155.633 264.061C156.215 265.42 153.013 268.137 153.013 268.137C153.013 268.137 158.06 267.069 159.613 266.099C161.166 265.128 161.36 261.634 162.719 261.926C164.078 262.217 163.69 264.644 162.913 266.876C162.913 266.876 162.428 272.505 161.554 274.446C160.68 276.387 152.916 280.561 152.916 280.561C152.916 280.561 144.86 280.561 145.83 275.417Z" fill="#FF7954"/>
<path id="XMLID_9_" d="M59.8874 345.976C59.8874 345.976 58.6384 362.219 71.4444 367.529C84.2504 372.839 127.668 368.778 127.668 368.778L142.974 409.072L161.716 401.888C161.716 401.888 148.597 353.473 142.974 349.099C137.352 344.726 111.113 344.726 111.113 344.726L59.8874 345.976Z" fill="#6E9200"/>
<path id="XMLID_11_" d="M118.038 376.899H66.1864C62.9954 376.899 60.4074 374.312 60.4074 371.12C60.4074 367.929 62.9944 365.341 66.1864 365.341H118.038C121.229 365.341 123.817 367.928 123.817 371.12C123.816 374.312 121.229 376.899 118.038 376.899Z" fill="#201D00"/>
<path id="XMLID_12_" d="M94.7674 376.275H88.5204V413.236H94.7674V376.275Z" fill="#42413D"/>
<path id="XMLID_10_" d="M149.791 414.093C149.791 414.093 149.323 424.776 149.739 426.128C150.155 427.48 166.686 426.96 166.686 426.96C166.686 426.96 178.539 427.896 181.45 426.648C184.361 425.4 182.802 422.905 177.291 420.098C171.781 417.291 161.334 411.296 161.334 411.296L149.791 414.093Z" fill="#201900"/>
<path id="XMLID_18_" d="M117.93 413.191C117.93 413.191 117.485 423.341 117.881 424.625C118.276 425.909 133.982 425.415 133.982 425.415C133.982 425.415 145.243 426.304 148.009 425.119C150.775 423.934 149.293 421.563 144.058 418.896C138.823 416.229 128.898 410.534 128.898 410.534L117.93 413.191Z" fill="#201900"/>
<path id="XMLID_14_" d="M141.387 407.829L161.626 399.165L163.151 403.531L143.258 411.78L141.387 407.829Z" fill="#94AF23"/>
<path id="XMLID_17_" d="M112.582 403.197L131.307 400.267L131.67 404.209L113.322 406.867L112.582 403.197Z" fill="#6E9200"/>
<path id="XMLID_15_" d="M111.859 427.653H72.2114C72.2114 419.155 79.1004 412.265 87.5994 412.265H96.4714C104.97 412.265 111.859 419.154 111.859 427.653Z" fill="#42413D"/>
</g>
<g id="phone">
<g id="XMLID_129_">
<g id="XMLID_119_">
<path id="XMLID_23_" d="M397.396 372.287L263.356 370.379V69.862L397.396 67C407.67 67 416 75.329 416 85.603V353.684C416 363.958 407.671 372.287 397.396 372.287Z" fill="#42413D"/>
<path id="XMLID_19_" d="M384.04 372.287H270.511C259.183 372.287 250 363.104 250 351.775V87.511C250 76.183 259.183 67 270.511 67H384.04C394.314 67 402.643 75.329 402.643 85.603V353.684C402.644 363.958 394.315 372.287 384.04 372.287Z" fill="#201D00"/>
<path id="XMLID_24_" d="M371.931 363.065H275.272C265.091 363.065 256.837 354.811 256.837 344.63V95.929C256.837 85.748 265.091 77.494 275.272 77.494H371.931C381.165 77.494 388.651 84.98 388.651 94.214V346.345C388.651 355.579 381.165 363.065 371.931 363.065Z" fill="#A0CFFF"/>
<path id="XMLID_37_" d="M324.5 84.5H314.333C308.442 84.5 303.666 79.724 303.666 73.833H335.166C335.167 79.724 330.391 84.5 324.5 84.5Z" fill="#201D00"/>
</g>
<g id="XMLID_121_">
<g id="XMLID_113_">
<path id="XMLID_22_" d="M378.5 286.667H266.5V349H378.5V286.667Z" fill="#CEF1FF"/>
<path id="XMLID_25_" d="M367.333 297H300V306.333H367.333V297Z" fill="#A0CFFF"/>
<path id="XMLID_28_" d="M367.333 314.333H300V323.666H367.333V314.333Z" fill="#A0CFFF"/>
<path id="XMLID_29_" d="M367.333 328.333H300V337.666H367.333V328.333Z" fill="#A0CFFF"/>
<path id="XMLID_26_" d="M293.224 306.643C294.573 301.169 291.229 295.637 285.754 294.288C280.28 292.939 274.749 296.283 273.4 301.757C272.051 307.232 275.395 312.763 280.869 314.112C286.343 315.461 291.874 312.117 293.224 306.643Z" fill="#A0CFFF"/>
</g>
<g id="XMLID_120_">
<path id="XMLID_50_" d="M376 237.5H267.333V104.166C267.333 95.79 274.123 89 282.499 89H360.834C369.21 89 376 95.79 376 104.166V237.5Z" fill="#79B2E2"/>
<g id="XMLID_51_">
<path id="XMLID_36_" d="M283.701 169.059C283.701 169.059 278.342 175.991 276.811 186.455C275.28 196.918 272.983 237.751 272.983 237.751L287.032 237.496C287.032 237.496 288.805 175.652 283.701 169.059Z" fill="#E2E8E2"/>
<path id="XMLID_34_" d="M331.546 153.615L354.56 164.82L351.532 237.495H287.032L283.701 169.059L305.655 154.574L331.546 153.615Z" fill="white"/>
<path id="XMLID_32_" d="M311.863 161.64L306.337 164.138L305.655 154.574L309.743 150.36L311.863 161.64Z" fill="#C4FFC3"/>
<path id="XMLID_33_" d="M331.546 153.615L317.617 166.535L308.533 197.321L306.338 164.138C306.338 164.138 322.26 153.313 331.546 153.615Z" fill="#A3E5A1"/>
<path id="XMLID_31_" d="M298.035 104.257C298.035 104.257 293.583 108.039 293.847 117.736C294.111 127.433 289.59 127.32 289.59 127.32C289.59 127.32 290.257 143.881 296.814 146.044C303.371 148.208 307.124 146.283 307.124 146.283L311.359 161.791L327.459 150.89C327.459 150.89 331.346 110.639 327.106 104.862C322.864 99.086 304.523 101.495 298.035 104.257Z" fill="#FF7954"/>
<path id="XMLID_27_" d="M296.52 102.743C296.52 102.743 296.52 112.736 304.797 115.36C313.074 117.984 316.001 116.268 316.001 116.268C316.001 116.268 314.891 126.765 319.029 128.986C319.029 128.986 320.341 120.608 323.47 121.517C326.599 122.425 326.902 128.885 325.186 133.428C323.47 137.97 320.139 137.163 320.139 137.163L328.214 141.806C328.214 141.806 346.383 120.811 337.399 107.083C337.399 107.083 338.106 99.412 326.498 96.383C314.891 93.355 297.025 93.658 296.52 102.743Z" fill="#201900"/>
<path id="XMLID_30_" d="M311.358 161.791L327.811 147.66L331.546 153.615L317.616 166.536L311.358 161.791Z" fill="#C4FFC3"/>
<path id="XMLID_35_" d="M354.56 164.82C354.56 164.82 363.325 171.398 367.153 190.793C370.981 210.188 372.002 237.495 372.002 237.495H347.503C347.503 237.495 341.712 164.111 354.56 164.82Z" fill="#E2E8E2"/>
<g id="XMLID_44_">
<g id="XMLID_39_">
<path id="XMLID_43_" d="M324.845 175.713C324.712 175.713 324.577 175.685 324.447 175.627C323.959 175.407 323.741 174.832 323.961 174.344C333.69 152.758 328.12 148.592 328.061 148.556C327.603 148.277 327.458 147.679 327.738 147.222C328.018 146.764 328.616 146.62 329.072 146.898C329.826 147.358 336.135 152.055 325.732 175.141C325.569 175.5 325.216 175.713 324.845 175.713Z" fill="#201D00"/>
</g>
<g id="XMLID_40_">
<path id="XMLID_42_" d="M301.914 174.346C301.415 174.346 300.991 173.963 300.948 173.457C298.825 148.224 306.558 150.533 307.422 150.351C307.945 150.239 308.461 150.576 308.572 151.1C308.681 151.616 308.358 152.123 307.848 152.245C307.681 152.296 300.916 149.916 302.881 173.294C302.927 173.828 302.529 174.298 301.996 174.343C301.969 174.344 301.941 174.346 301.914 174.346Z" fill="#201D00"/>
</g>
<path id="XMLID_38_" d="M327.05 181.023C326.003 183.97 323.435 185.749 321.313 184.995C319.191 184.241 318.319 181.241 319.366 178.294C320.413 175.347 323.578 172.109 325.7 172.863C327.822 173.617 328.097 178.076 327.05 181.023Z" fill="#201D00"/>
<path id="XMLID_41_" d="M295.819 182.072C295.819 182.072 296.385 186.521 297.356 187.127C298.327 187.734 300.349 187.046 300.349 187.046" stroke="#A7AFB5" stroke-miterlimit="10" stroke-linecap="round"/>
<path id="XMLID_46_" d="M310.194 178.97C310.194 178.97 311.501 183.26 310.864 184.211C310.227 185.162 308.101 185.364 308.101 185.364" stroke="#A7AFB5" stroke-miterlimit="10" stroke-linecap="round"/>
<path id="XMLID_45_" d="M296.173 183.578L295.884 182.205C295.07 178.329 297.53 174.522 301.398 173.672C305.088 172.861 308.778 175.033 309.861 178.653L310.064 179.332" stroke="#201D00" stroke-width="2" stroke-miterlimit="10" stroke-linecap="round"/>
</g>
</g>
</g>
<g id="XMLID_118_">
<path id="XMLID_52_" d="M353.125 279.75C362.859 279.75 370.75 271.859 370.75 262.125C370.75 252.391 362.859 244.5 353.125 244.5C343.391 244.5 335.5 252.391 335.5 262.125C335.5 271.859 343.391 279.75 353.125 279.75Z" fill="#FF6878"/>
<path id="XMLID_56_" d="M364.778 264.298L364.291 261.002C364.195 260.353 363.817 259.78 363.258 259.437L360.23 257.578C359.881 257.364 359.48 257.25 359.07 257.25H351.856C351.664 257.25 351.481 257.282 351.303 257.328H347.888C347.479 257.328 347.077 257.441 346.728 257.656L343.7 259.516C343.141 259.859 342.763 260.432 342.667 261.081L342.18 264.377C341.982 265.716 343.02 266.917 344.373 266.917H346.137C347.329 266.917 348.31 265.976 348.35 264.784C348.373 264.089 348.457 263.351 348.665 262.785C349.022 261.817 352.61 261.715 355.053 261.76C355.093 261.761 355.13 261.752 355.17 261.75C356.737 261.865 358.082 262.134 358.293 262.707C358.502 263.273 358.585 264.011 358.608 264.706C358.648 265.897 359.629 266.839 360.821 266.839H362.585C363.939 266.839 364.976 265.637 364.778 264.298Z" fill="#E2E8E2"/>
</g>
<g id="XMLID_117_">
<path id="XMLID_49_" d="M286.625 279.75C296.359 279.75 304.25 271.859 304.25 262.125C304.25 252.391 296.359 244.5 286.625 244.5C276.891 244.5 269 252.391 269 262.125C269 271.859 276.891 279.75 286.625 279.75Z" fill="#6E9200"/>
<path id="XMLID_53_" d="M287.996 267.313H279.082C278.185 267.313 277.458 266.586 277.458 265.689V257.603C277.458 256.706 278.185 255.979 279.082 255.979H287.996C288.893 255.979 289.62 256.706 289.62 257.603V265.689C289.619 266.586 288.892 267.313 287.996 267.313Z" fill="#E2E8E2"/>
<path id="XMLID_55_" d="M290.636 260.402L293.746 257.42C294.205 256.98 294.968 257.305 294.968 257.941V265.28C294.968 265.942 294.151 266.255 293.709 265.763L290.567 262.265C290.083 261.728 290.114 260.903 290.636 260.402Z" fill="#E2E8E2"/>
</g>
</g>
</g>
</g>
<g id="objecta">
<path id="XMLID_89_" d="M179.838 108H219.454C223.916 108 227.534 111.617 227.534 116.08V138.234C227.534 142.696 223.917 146.314 219.454 146.314H216.07L217.981 152.176C218.608 154.098 216.418 155.706 214.772 154.532L203.248 146.314H179.837C175.375 146.314 171.757 142.697 171.757 138.234V116.08C171.759 111.618 175.376 108 179.838 108Z" fill="#FF6878"/>
<g id="XMLID_109_">
<path id="XMLID_112_" d="M184.605 131.066C186.538 131.066 188.105 129.499 188.105 127.566C188.105 125.633 186.538 124.066 184.605 124.066C182.672 124.066 181.105 125.633 181.105 127.566C181.105 129.499 182.672 131.066 184.605 131.066Z" fill="white"/>
<path id="XMLID_111_" d="M199.772 131.066C201.705 131.066 203.272 129.499 203.272 127.566C203.272 125.633 201.705 124.066 199.772 124.066C197.839 124.066 196.272 125.633 196.272 127.566C196.272 129.499 197.839 131.066 199.772 131.066Z" fill="white"/>
<path id="XMLID_110_" d="M215.022 131.066C216.955 131.066 218.522 129.499 218.522 127.566C218.522 125.633 216.955 124.066 215.022 124.066C213.089 124.066 211.522 125.633 211.522 127.566C211.522 129.499 213.089 131.066 215.022 131.066Z" fill="white"/>
</g>
<g id="XMLID_124_">
<g id="XMLID_123_">
<path id="XMLID_84_" d="M475.953 253.547V302.823C475.953 306.6 472.892 309.661 469.115 309.661H443.366C439.599 309.661 436.538 306.6 436.538 302.823V253.547C436.538 249.78 439.599 246.719 443.366 246.719H469.115C472.891 246.718 475.953 249.78 475.953 253.547Z" fill="#A85604"/>
<path id="XMLID_67_" d="M474.204 253.547V302.823C474.204 306.6 471.143 309.661 467.366 309.661H441.617C437.85 309.661 434.789 306.6 434.789 302.823V253.547C434.789 249.78 437.85 246.719 441.617 246.719H467.366C471.143 246.718 474.204 249.78 474.204 253.547Z" fill="#D9AA00"/>
<path id="XMLID_65_" d="M474.204 253.547V302.823C474.204 306.6 471.361 309.661 467.855 309.661H453.545V246.719H467.855C471.362 246.718 474.204 249.78 474.204 253.547Z" fill="#D68F00"/>
<g id="XMLID_58_">
<path id="XMLID_54_" d="M448.396 260.027H441.72C440.305 260.027 439.157 258.88 439.157 257.464C439.157 256.048 440.304 254.901 441.72 254.901H448.396C449.811 254.901 450.959 256.048 450.959 257.464C450.959 258.879 449.811 260.027 448.396 260.027Z" fill="white"/>
<path id="XMLID_70_" d="M448.078 259.312H442.038C441.018 259.312 440.19 258.485 440.19 257.464C440.19 256.443 441.017 255.616 442.038 255.616H448.078C449.099 255.616 449.926 256.443 449.926 257.464C449.926 258.484 449.098 259.312 448.078 259.312Z" fill="#96D5FF"/>
</g>
<g id="XMLID_60_">
<path id="XMLID_62_" d="M467.072 260.027H460.396C458.981 260.027 457.833 258.88 457.833 257.464C457.833 256.048 458.98 254.901 460.396 254.901H467.072C468.487 254.901 469.635 256.048 469.635 257.464C469.635 258.879 468.487 260.027 467.072 260.027Z" fill="white"/>
<path id="XMLID_61_" d="M466.754 259.312H460.714C459.693 259.312 458.866 258.485 458.866 257.464C458.866 256.443 459.693 255.616 460.714 255.616H466.754C467.775 255.616 468.602 256.443 468.602 257.464C468.602 258.484 467.774 259.312 466.754 259.312Z" fill="#96D5FF"/>
</g>
<g id="XMLID_68_">
<path id="XMLID_71_" d="M448.396 270.517H441.72C440.305 270.517 439.157 269.37 439.157 267.954C439.157 266.539 440.304 265.391 441.72 265.391H448.396C449.811 265.391 450.959 266.539 450.959 267.954C450.959 269.37 449.811 270.517 448.396 270.517Z" fill="white"/>
<path id="XMLID_69_" d="M448.078 269.802H442.038C441.018 269.802 440.19 268.975 440.19 267.954C440.19 266.934 441.017 266.106 442.038 266.106H448.078C449.099 266.106 449.926 266.933 449.926 267.954C449.926 268.975 449.098 269.802 448.078 269.802Z" fill="#96D5FF"/>
</g>
<g id="XMLID_63_">
<path id="XMLID_66_" d="M467.072 270.517H460.396C458.981 270.517 457.833 269.37 457.833 267.954C457.833 266.539 458.98 265.391 460.396 265.391H467.072C468.487 265.391 469.635 266.539 469.635 267.954C469.635 269.37 468.487 270.517 467.072 270.517Z" fill="white"/>
<path id="XMLID_64_" d="M466.754 269.802H460.714C459.693 269.802 458.866 268.975 458.866 267.954C458.866 266.934 459.693 266.106 460.714 266.106H466.754C467.775 266.106 468.602 266.933 468.602 267.954C468.602 268.975 467.774 269.802 466.754 269.802Z" fill="#96D5FF"/>
</g>
<g id="XMLID_81_">
<path id="XMLID_83_" d="M448.396 280.113H441.72C440.305 280.113 439.157 278.966 439.157 277.55C439.157 276.134 440.304 274.987 441.72 274.987H448.396C449.811 274.987 450.959 276.134 450.959 277.55C450.959 278.966 449.811 280.113 448.396 280.113Z" fill="white"/>
<path id="XMLID_82_" d="M448.078 279.398H442.038C441.018 279.398 440.19 278.571 440.19 277.55C440.19 276.529 441.017 275.702 442.038 275.702H448.078C449.099 275.702 449.926 276.529 449.926 277.55C449.926 278.571 449.098 279.398 448.078 279.398Z" fill="#96D5FF"/>
</g>
<g id="XMLID_78_">
<path id="XMLID_80_" d="M467.072 280.113H460.396C458.981 280.113 457.833 278.966 457.833 277.55C457.833 276.134 458.98 274.987 460.396 274.987H467.072C468.487 274.987 469.635 276.134 469.635 277.55C469.635 278.966 468.487 280.113 467.072 280.113Z" fill="white"/>
<path id="XMLID_79_" d="M466.754 279.398H460.714C459.693 279.398 458.866 278.571 458.866 277.55C458.866 276.529 459.693 275.702 460.714 275.702H466.754C467.775 275.702 468.602 276.529 468.602 277.55C468.602 278.571 467.774 279.398 466.754 279.398Z" fill="#96D5FF"/>
</g>
<g id="XMLID_75_">
<path id="XMLID_77_" d="M448.396 290.604H441.72C440.305 290.604 439.157 289.457 439.157 288.041C439.157 286.626 440.304 285.478 441.72 285.478H448.396C449.811 285.478 450.959 286.625 450.959 288.041C450.959 289.456 449.811 290.604 448.396 290.604Z" fill="white"/>
<path id="XMLID_76_" d="M448.078 289.888H442.038C441.018 289.888 440.19 289.061 440.19 288.04C440.19 287.02 441.017 286.192 442.038 286.192H448.078C449.099 286.192 449.926 287.019 449.926 288.04C449.926 289.061 449.098 289.888 448.078 289.888Z" fill="#96D5FF"/>
</g>
<g id="XMLID_72_">
<path id="XMLID_74_" d="M467.072 290.604H460.396C458.981 290.604 457.833 289.457 457.833 288.041C457.833 286.626 458.98 285.478 460.396 285.478H467.072C468.487 285.478 469.635 286.625 469.635 288.041C469.635 289.456 468.487 290.604 467.072 290.604Z" fill="white"/>
<path id="XMLID_73_" d="M466.754 289.888H460.714C459.693 289.888 458.866 289.061 458.866 288.04C458.866 287.02 459.693 286.192 460.714 286.192H466.754C467.775 286.192 468.602 287.019 468.602 288.04C468.602 289.061 467.774 289.888 466.754 289.888Z" fill="#96D5FF"/>
</g>
<g id="XMLID_93_">
<path id="XMLID_95_" d="M448.396 301.69H441.72C440.305 301.69 439.157 300.543 439.157 299.127C439.157 297.711 440.304 296.564 441.72 296.564H448.396C449.811 296.564 450.959 297.711 450.959 299.127C450.959 300.543 449.811 301.69 448.396 301.69Z" fill="white"/>
<path id="XMLID_94_" d="M448.078 300.975H442.038C441.018 300.975 440.19 300.148 440.19 299.127C440.19 298.106 441.017 297.279 442.038 297.279H448.078C449.099 297.279 449.926 298.106 449.926 299.127C449.926 300.147 449.098 300.975 448.078 300.975Z" fill="#96D5FF"/>
</g>
<g id="XMLID_90_">
<path id="XMLID_92_" d="M467.072 301.69H460.396C458.981 301.69 457.833 300.543 457.833 299.127C457.833 297.711 458.98 296.564 460.396 296.564H467.072C468.487 296.564 469.635 297.711 469.635 299.127C469.635 300.543 468.487 301.69 467.072 301.69Z" fill="white"/>
<path id="XMLID_91_" d="M466.754 300.975H460.714C459.693 300.975 458.866 300.148 458.866 299.127C458.866 298.106 459.693 297.279 460.714 297.279H466.754C467.775 297.279 468.602 298.106 468.602 299.127C468.602 300.147 467.774 300.975 466.754 300.975Z" fill="#96D5FF"/>
</g>
</g>
<g id="XMLID_126_">
<path id="XMLID_88_" d="M99.663 194.717C103.529 194.717 106.663 191.583 106.663 187.717C106.663 183.851 103.529 180.717 99.663 180.717C95.797 180.717 92.663 183.851 92.663 187.717C92.663 191.583 95.797 194.717 99.663 194.717Z" fill="#FF6878"/>
<path id="XMLID_87_" d="M105 187.717C105 190.057 103.85 192.127 102.09 193.387C101.58 193.767 101.03 194.067 100.43 194.277C99.68 194.567 98.86 194.717 98 194.717C94.13 194.717 91 191.587 91 187.717C91 185.747 91.81 183.967 93.13 182.697C93.58 182.247 94.1 181.867 94.66 181.557C95.65 181.017 96.79 180.717 98 180.717C101.86 180.717 105 183.847 105 187.717Z" fill="#F995A4"/>
<path id="XMLID_85_" d="M102.527 193.486C102.013 193.877 101.46 194.186 100.855 194.402L93.504 182.481C93.957 182.018 94.481 181.627 95.045 181.307L102.527 193.486Z" fill="#FF6878"/>
<g id="XMLID_59_">
<path id="XMLID_103_" d="M125.143 172.307L130.727 187.567C131.974 190.976 130.22 194.738 126.811 195.985C123.411 197.229 119.644 195.488 118.396 192.079L112.812 176.819C111.568 173.419 113.319 169.648 116.718 168.404C118.418 167.782 120.218 167.901 121.745 168.609C123.262 169.322 124.521 170.608 125.143 172.307Z" fill="#96D5FF"/>
<path id="XMLID_101_" d="M125.143 172.307L128.215 180.703L115.884 185.215L112.812 176.819C111.568 173.419 113.319 169.648 116.718 168.404C118.418 167.782 120.218 167.901 121.745 168.609C123.262 169.322 124.521 170.608 125.143 172.307Z" fill="#6E9200"/>
</g>
</g>
</g>
<path id="XMLID_98_" d="M170.615 206H135.219C131.232 206 128 209.232 128 213.219V233.013C128 237 131.232 240.232 135.219 240.232H138.242L136.534 245.47C135.974 247.187 137.931 248.624 139.401 247.575L149.698 240.232H170.615C174.602 240.232 177.834 237 177.834 233.013V213.219C177.834 209.232 174.602 206 170.615 206Z" fill="#79B2E2"/>
<g id="XMLID_104_">
<path id="XMLID_86_" d="M137.5 227C139.433 227 141 225.433 141 223.5C141 221.567 139.433 220 137.5 220C135.567 220 134 221.567 134 223.5C134 225.433 135.567 227 137.5 227Z" fill="white"/>
<path id="XMLID_105_" d="M152.667 227C154.6 227 156.167 225.433 156.167 223.5C156.167 221.567 154.6 220 152.667 220C150.734 220 149.167 221.567 149.167 223.5C149.167 225.433 150.734 227 152.667 227Z" fill="white"/>
<path id="XMLID_107_" d="M167.917 227C169.85 227 171.417 225.433 171.417 223.5C171.417 221.567 169.85 220 167.917 220C165.984 220 164.417 221.567 164.417 223.5C164.417 225.433 165.984 227 167.917 227Z" fill="white"/>
</g>
</g>
<g id="XMLID_122_">
<path id="XMLID_99_" d="M455.599 132.726H453.814C453.118 132.726 452.554 132.162 452.554 131.466V129.261C452.554 128.565 451.99 128.001 451.294 128.001H447.723C447.027 128.001 446.463 128.565 446.463 129.261V131.466C446.463 132.162 445.899 132.726 445.203 132.726H443.418C442.722 132.726 442.158 133.29 442.158 133.986V137.557C442.158 138.253 442.722 138.817 443.418 138.817H445.203C445.899 138.817 446.463 139.381 446.463 140.077V142.072C446.463 142.768 447.027 143.332 447.723 143.332H451.294C451.99 143.332 452.554 142.768 452.554 142.072V140.077C452.554 139.381 453.118 138.817 453.814 138.817H455.599C456.295 138.817 456.859 138.253 456.859 137.557V133.986C456.859 133.29 456.295 132.726 455.599 132.726Z" fill="#A0CFFF"/>
<path id="XMLID_96_" d="M53.441 288H51.656C50.96 288 50.396 287.436 50.396 286.74V284.535C50.396 283.839 49.832 283.275 49.136 283.275H45.565C44.869 283.275 44.305 283.839 44.305 284.535V286.74C44.305 287.436 43.741 288 43.045 288H41.26C40.564 288 40 288.564 40 289.26V292.831C40 293.527 40.564 294.091 41.26 294.091H43.045C43.741 294.091 44.305 294.655 44.305 295.351V297.346C44.305 298.042 44.869 298.606 45.565 298.606H49.136C49.832 298.606 50.396 298.042 50.396 297.346V295.351C50.396 294.655 50.96 294.091 51.656 294.091H53.441C54.137 294.091 54.701 293.527 54.701 292.831V289.26C54.702 288.564 54.137 288 53.441 288Z" fill="#A0CFFF"/>
<path id="XMLID_97_" d="M218.775 200H216.99C216.294 200 215.73 199.436 215.73 198.74V196.535C215.73 195.839 215.166 195.275 214.47 195.275H210.899C210.203 195.275 209.639 195.839 209.639 196.535V198.74C209.639 199.436 209.075 200 208.379 200H206.594C205.898 200 205.334 200.564 205.334 201.26V204.831C205.334 205.527 205.898 206.091 206.594 206.091H208.379C209.075 206.091 209.639 206.655 209.639 207.351V209.346C209.639 210.042 210.203 210.606 210.899 210.606H214.47C215.166 210.606 215.73 210.042 215.73 209.346V207.351C215.73 206.655 216.294 206.091 216.99 206.091H218.775C219.471 206.091 220.035 205.527 220.035 204.831V201.26C220.035 200.564 219.471 200 218.775 200Z" fill="#A0CFFF"/>
<path id="XMLID_102_" d="M448.108 348.667H446.323C445.627 348.667 445.063 348.103 445.063 347.407V345.201C445.063 344.505 444.499 343.941 443.803 343.941H440.232C439.536 343.941 438.972 344.505 438.972 345.201V347.407C438.972 348.103 438.408 348.667 437.712 348.667H435.927C435.231 348.667 434.667 349.231 434.667 349.927V353.498C434.667 354.194 435.231 354.758 435.927 354.758H437.712C438.408 354.758 438.972 355.322 438.972 356.018V358.013C438.972 358.709 439.536 359.273 440.232 359.273H443.803C444.499 359.273 445.063 358.709 445.063 358.013V356.018C445.063 355.322 445.627 354.758 446.323 354.758H448.108C448.804 354.758 449.368 354.194 449.368 353.498V349.927C449.368 349.231 448.804 348.667 448.108 348.667Z" fill="#A0CFFF"/>
<path id="XMLID_100_" d="M79.441 120.667H77.656C76.96 120.667 76.396 120.103 76.396 119.407V117.201C76.396 116.505 75.832 115.941 75.136 115.941H71.565C70.869 115.941 70.305 116.505 70.305 117.201V119.407C70.305 120.103 69.741 120.667 69.045 120.667H67.26C66.564 120.667 66 121.231 66 121.927V125.498C66 126.194 66.564 126.758 67.26 126.758H69.045C69.741 126.758 70.305 127.322 70.305 128.018V130.013C70.305 130.709 70.869 131.273 71.565 131.273H75.136C75.832 131.273 76.396 130.709 76.396 130.013V128.018C76.396 127.322 76.96 126.758 77.656 126.758H79.441C80.137 126.758 80.701 126.194 80.701 125.498V121.927C80.702 121.231 80.137 120.667 79.441 120.667Z" fill="#A0CFFF"/>
<path id="XMLID_108_" d="M57.156 208C59.6413 208 61.656 205.985 61.656 203.5C61.656 201.015 59.6413 199 57.156 199C54.6707 199 52.656 201.015 52.656 203.5C52.656 205.985 54.6707 208 57.156 208Z" fill="#C6EBF7"/>
<path id="XMLID_114_" d="M187.156 92C189.641 92 191.656 89.9853 191.656 87.5C191.656 85.0147 189.641 83 187.156 83C184.671 83 182.656 85.0147 182.656 87.5C182.656 89.9853 184.671 92 187.156 92Z" fill="#C6EBF7"/>
<path id="XMLID_115_" d="M221.156 260.333C223.641 260.333 225.656 258.318 225.656 255.833C225.656 253.348 223.641 251.333 221.156 251.333C218.671 251.333 216.656 253.348 216.656 255.833C216.656 258.318 218.671 260.333 221.156 260.333Z" fill="#C6EBF7"/>
<path id="XMLID_116_" d="M444.323 199.833C446.808 199.833 448.823 197.818 448.823 195.333C448.823 192.848 446.808 190.833 444.323 190.833C441.838 190.833 439.823 192.848 439.823 195.333C439.823 197.818 441.838 199.833 444.323 199.833Z" fill="#C6EBF7"/>
</g>
</g>
</g>
<defs>
<clipPath id="clip0_0_1">
<rect width="500" height="500" fill="white"/>
</clipPath>
</defs>
</svg>
