<svg width="1233" height="839" viewBox="0 0 1233 839" fill="none" xmlns="http://www.w3.org/2000/svg">
<style>
#Vector_109
 {
    animation: heart 1s linear Infinite;
    transform-box: fill-box;
transform-origin: bottom;
}
@keyframes heart{
    from{
        translate : 0 1rem;
        scale:0.9;
    }
    to{
        translate : 0 -1rem;
        scale:0.8;
    }
}
#Vector_63,#Vector_64,#Vector_59
 {
    animation: tree 1s linear Infinite;
    transform-box:fill-box;
    transform-origin:bottom;
}
@keyframes tree{
    0%,100%{
        transform :rotate(3deg);
    
    }
    50%{
         transform :rotate(-3deg);
    
      
    }
}
#vector_102
 {
    animation: D2 5s linear Infinite;
  

}
@keyframes D2{
    from{
      transform:translateX(20px);
        
    }
    to{
       transform:translateX(0px);
     
    }
}

</style>
<g id="undraw_medicine_b-1-ol 1" clip-path="url(#clip0_1_2)" filter="url(#filter0_d_1_2)">
<rect width="1225" height="831" transform="translate(4)" fill="#FAEBD7"/>
<path id="Vector" opacity="0.1" d="M772.108 247.684H734.739V294.068H772.108V247.684Z" fill="#6C63FF"/>
<path id="Vector_2" opacity="0.1" d="M212.952 513.119H181.425V543.313H212.952V513.119Z" fill="#6C63FF"/>
<path id="Vector_3" opacity="0.1" d="M1015.94 373.278H984.408V403.471H1015.94V373.278Z" fill="#6C63FF"/>
<path id="Vector_4" opacity="0.1" d="M1015.94 447.753H984.408V477.947H1015.94V447.753Z" fill="#6C63FF"/>
<path id="Vector_5" opacity="0.1" d="M1015.94 522.218H984.408V552.411H1015.94V522.218Z" fill="#6C63FF"/>
<path id="Vector_6" opacity="0.1" d="M1015.94 596.693H984.408V626.886H1015.94V596.693Z" fill="#6C63FF"/>
<path id="Vector_7" opacity="0.1" d="M108.659 618.404C109.668 618.956 110.699 619.465 111.741 620.017V619.486H120.609V624.264L122.494 625.103V619.486H131.362V628.67C131.532 628.751 131.711 628.815 131.894 628.861V618.404H108.659Z" fill="#6C63FF"/>
<path id="Vector_8" d="M491.277 483.17L488.883 492.937C488.883 492.937 469.705 483.563 466.246 471.651C462.787 459.739 472.033 455.217 472.033 455.217L489.903 462.468L491.277 483.17Z" fill="white"/>
<path id="Vector_9" opacity="0.1" d="M491.277 483.17L488.883 492.937C488.883 492.937 469.705 483.563 466.246 471.651C462.787 459.739 472.033 455.217 472.033 455.217L489.903 462.468L491.277 483.17Z" fill="black"/>
<path id="Vector_10" d="M383.648 815.585C383.648 815.585 365.911 821.827 353.717 822.613C347.243 823.027 343.839 819.226 342.088 815.564C341.131 813.527 340.514 811.36 340.259 809.141L341.844 792.313L342.686 783.353L368.593 776.909L372.263 787.653L372.606 788.47C374.081 792.058 379.989 806.656 379.812 809.703C379.805 810.483 379.962 811.257 380.274 811.978C380.587 812.698 381.048 813.351 381.63 813.897C382.225 814.539 382.903 815.107 383.648 815.585Z" fill="white"/>
<path id="Vector_11" d="M504.802 807.028C504.846 807.539 504.794 808.053 504.647 808.546C504.647 808.546 466.712 814.608 458.952 808.546C456.764 806.775 454.214 805.462 451.465 804.69C448.716 803.919 445.829 803.706 442.989 804.066C442.989 804.066 428.311 804.448 425.861 799.819C424.842 797.876 425.108 794.107 425.739 790.392C426.384 786.91 427.243 783.468 428.311 780.083L428.899 779.637L432.391 776.951L473.274 775.794H473.585C473.385 783.799 487.464 792.982 487.464 792.982C502.418 798.29 504.624 804.289 504.802 807.028Z" fill="white"/>
<path id="Vector_12" opacity="0.1" d="M383.648 815.585C383.648 815.585 365.911 821.827 353.717 822.613C347.243 823.027 343.839 819.226 342.099 815.553C346.611 817.007 352.874 818.536 356.166 817.135C360.069 815.479 373.903 814.406 381.663 813.95C382.254 814.569 382.92 815.118 383.648 815.585Z" fill="black"/>
<path id="Vector_13" d="M409.965 312.519C395.332 307.073 376.509 289.078 381.209 280.67C382.253 278.548 382.873 276.258 383.038 273.918C383.34 270.741 383.385 267.546 383.171 264.363C382.841 259.149 382.186 253.959 381.209 248.82C381.209 248.82 426.892 249.807 424.232 256.252C423.456 258.141 423.334 261.422 423.545 265.095C423.755 268.769 424.309 272.92 424.886 276.434C425.684 281.254 426.482 284.927 426.482 284.927C426.482 284.927 423.689 288.675 422.048 288.876C420.407 289.078 430.961 320.28 409.965 312.519Z" fill="#CF6F80"/>
<path id="Vector_14" opacity="0.1" d="M372.573 788.47L372.229 788.831C358.572 773.012 342.054 792.727 342.054 792.727L341.811 792.313L342.653 783.353L368.56 776.909L372.229 787.653L372.573 788.47Z" fill="black"/>
<path id="Vector_15" d="M389.567 652.684C388.824 654.444 388.26 656.268 387.882 658.131C386.958 663.233 386.701 668.425 387.117 673.588C387.528 681.02 387.117 730.822 387.117 730.822C387.117 730.822 378.349 744.104 373.46 748.785C368.571 753.467 383.437 761.876 383.437 761.876C385.654 773.979 372.218 787.653 372.218 787.653C358.561 771.834 342.043 791.559 342.043 791.559C342.043 791.559 333.064 776.696 330.825 771.388C328.586 766.08 339.593 762.406 343.462 760.251C347.331 758.096 343.274 745.388 343.274 745.388C343.274 745.388 340.004 734.251 336.124 724.091C332.244 713.931 340.403 663.354 340.403 663.354C340.403 663.354 340.824 654.372 341.833 651.241C342.342 648.981 342.443 646.654 342.132 644.361C342.066 643.586 341.988 642.938 341.933 642.503C341.877 642.068 341.833 641.866 341.833 641.866L341.988 641.611L347.531 631.717C347.531 631.717 392.228 646.452 389.567 652.684Z" fill="#6C63FF"/>
<path id="Vector_16" opacity="0.1" d="M424.232 256.252C423.456 258.141 423.334 261.422 423.545 265.095C417.425 268.624 410.391 270.428 403.249 270.301C396.107 270.173 389.148 268.119 383.171 264.373C382.842 259.156 382.187 253.962 381.209 248.82C381.209 248.82 426.892 249.786 424.232 256.252Z" fill="black"/>
<path id="Vector_17" d="M441.891 232.789C441.9 236.615 441.271 240.417 440.029 244.053C437.251 252.2 431.556 259.144 423.95 263.659C416.343 268.173 407.315 269.967 398.462 268.723C389.608 267.479 381.498 263.278 375.566 256.861C369.634 250.445 366.261 242.227 366.044 233.66C366.044 233.362 366.044 233.086 366.044 232.789C365.958 227.967 366.875 223.176 368.742 218.697C370.61 214.217 373.39 210.139 376.921 206.7C380.451 203.26 384.662 200.528 389.306 198.663C393.951 196.799 398.937 195.838 403.973 195.838C409.009 195.838 413.995 196.799 418.64 198.663C423.284 200.528 427.495 203.26 431.025 206.7C434.556 210.139 437.336 214.217 439.203 218.697C441.071 223.176 441.988 227.967 441.902 232.789H441.891Z" fill="#CF6F80"/>
<path id="Vector_18" opacity="0.1" d="M409.965 312.519C395.332 307.073 376.509 289.078 381.209 280.67C382.253 278.548 382.873 276.258 383.038 273.918L403.07 289.683L415.463 299.419L424.886 276.444C425.684 281.264 426.482 284.938 426.482 284.938C426.482 284.938 423.689 288.685 422.048 288.887C420.407 289.089 430.961 320.28 409.965 312.519Z" fill="black"/>
<path id="Vector_19" d="M461.768 382.196L445.039 651.325L423.223 652.695L366.731 496.642L375.999 311.373L377.95 272.23L403.069 291.987L415.474 301.722L425.174 278.079L443.21 293.134L461.768 382.196Z" fill="#6C63FF"/>
<path id="Vector_20" opacity="0.1" d="M389.567 652.684C388.824 654.444 388.26 656.268 387.882 658.131C372.008 655.783 356.59 651.171 342.143 644.446L341.844 644.297L341.944 642.588L341.999 641.696L347.542 631.802C347.542 631.802 392.228 646.452 389.567 652.684Z" fill="black"/>
<path id="Vector_21" opacity="0.1" d="M428.932 658.173C424.874 658.834 420.781 659.281 416.671 659.511C416.428 654.203 416.283 650.55 416.283 650.55L428.611 648.172L428.932 658.173Z" fill="black"/>
<path id="Vector_22" opacity="0.1" d="M461.302 651.803C453.42 653.767 441.248 655.976 430.351 654.595L430.196 647.864L459.927 642.153C459.927 642.153 460.748 647.408 461.302 651.803Z" fill="black"/>
<path id="Vector_23" opacity="0.1" d="M416.683 349.773C411.794 347.819 385.898 319.505 385.898 319.505V313.061C384.956 310.938 379.357 312.233 374.812 313.719L376.763 274.576L378.981 276.338C383.836 292.751 416.117 348.828 416.683 349.773Z" fill="black"/>
<path id="Vector_24" d="M417.913 347.427C413.013 345.473 387.117 317.159 387.117 317.159V310.715C386.175 308.591 380.577 309.887 376.032 311.373L377.994 272.23L380.211 273.992C385.078 290.405 417.37 346.492 417.913 347.427Z" fill="white"/>
<path id="Vector_25" opacity="0.1" d="M343.074 488.637C343.684 488.637 374.679 485.516 374.679 485.516C374.679 485.516 393.447 520.859 392.217 529.458C390.986 538.058 388.758 545.67 381.209 544.321C373.659 542.973 340.58 545.383 340.58 545.383L343.074 488.637Z" fill="black"/>
<path id="Vector_26" d="M341.844 486.291C342.454 486.291 373.449 483.17 373.449 483.17C373.449 483.17 392.206 518.523 390.986 527.112C389.767 535.701 387.516 543.323 379.978 541.975C372.44 540.627 339.35 543.037 339.35 543.037L341.844 486.291Z" fill="white"/>
<path id="Vector_27" d="M365.201 469.697C365.201 469.697 393.647 484.338 394.256 488.807C394.866 493.277 379.779 486.854 376.52 486.079C374.374 485.584 372.191 485.257 369.99 485.102L348.251 485.665L365.201 469.697Z" fill="#CF6F80"/>
<path id="Vector_28" opacity="0.1" d="M408.745 351.599C410.398 351.599 411.738 350.316 411.738 348.733C411.738 347.149 410.398 345.866 408.745 345.866C407.092 345.866 405.752 347.149 405.752 348.733C405.752 350.316 407.092 351.599 408.745 351.599Z" fill="black"/>
<path id="Vector_29" d="M408.745 350.431C410.398 350.431 411.738 349.148 411.738 347.565C411.738 345.982 410.398 344.698 408.745 344.698C407.092 344.698 405.752 345.982 405.752 347.565C405.752 349.148 407.092 350.431 408.745 350.431Z" fill="#3F3D56"/>
<path id="Vector_30" opacity="0.1" d="M414.255 475.685C415.908 475.685 417.248 474.402 417.248 472.819C417.248 471.236 415.908 469.952 414.255 469.952C412.602 469.952 411.262 471.236 411.262 472.819C411.262 474.402 412.602 475.685 414.255 475.685Z" fill="black"/>
<path id="Vector_31" d="M414.255 474.507C415.908 474.507 417.248 473.223 417.248 471.64C417.248 470.057 415.908 468.774 414.255 468.774C412.602 468.774 411.262 470.057 411.262 471.64C411.262 473.223 412.602 474.507 414.255 474.507Z" fill="#3F3D56"/>
<path id="Vector_32" opacity="0.1" d="M411.727 413.642C413.38 413.642 414.72 412.359 414.72 410.776C414.72 409.193 413.38 407.909 411.727 407.909C410.074 407.909 408.734 409.193 408.734 410.776C408.734 412.359 410.074 413.642 411.727 413.642Z" fill="black"/>
<path id="Vector_33" d="M411.727 412.474C413.38 412.474 414.72 411.191 414.72 409.608C414.72 408.025 413.38 406.741 411.727 406.741C410.074 406.741 408.734 408.025 408.734 409.608C408.734 411.191 410.074 412.474 411.727 412.474Z" fill="#3F3D56"/>
<path id="Vector_34" d="M480.724 484.508C480.724 484.508 482.764 487.438 480.724 488.807C478.684 490.177 480.923 493.489 480.923 493.489C480.923 493.489 475.835 496.345 478.074 498.914C480.314 501.483 478.895 513.087 478.895 513.087L472.775 522.791C472.775 522.791 473.141 529.044 473.164 537.495C473.164 550.681 472.354 569.217 467.876 577.668L468.496 647.005C468.496 647.005 447.068 654.5 429.132 652.217L426.471 540.956C426.471 540.956 430.351 477.862 431.781 465.759C432.618 459.475 432.959 453.141 432.801 446.808C432.801 446.808 432.191 427.868 430.14 419.078C430.14 419.078 427.923 380.996 427.702 370.454C427.602 365.411 427.879 350.697 428.189 336.704C428.533 321.405 428.921 306.978 428.921 306.978L424.875 276.317C424.875 276.317 428.921 275.924 430.14 277.485C430.687 277.973 431.281 278.411 431.914 278.791C438.898 283.313 463.574 297.221 463.574 297.221C463.574 297.221 477.232 302.423 480.502 309.876C483.772 317.329 486.045 322.616 487.63 324.739C489.215 326.862 490.08 336.842 490.08 336.842C490.08 336.842 494.78 355.209 498.45 358.319C502.119 361.43 504.802 381.219 504.802 381.219L472.376 405.637C472.376 405.637 469.527 446.256 468.918 447.827C468.308 449.399 480.724 484.508 480.724 484.508Z" fill="white"/>
<path id="Vector_35" d="M484.157 488.573C484.157 488.573 486.186 491.503 484.157 492.872C482.129 494.242 484.346 497.554 484.346 497.554C484.346 497.554 479.291 500.442 481.508 503.011C483.725 505.58 482.328 517.184 482.328 517.184L476.209 526.888C476.209 526.888 476.575 533.141 476.608 541.592C476.608 554.778 475.799 573.314 471.32 581.765L471.93 651.102C471.93 651.102 450.468 658.597 432.554 656.314L429.904 545.053C429.904 545.053 433.784 481.959 435.214 469.856C436.052 463.573 436.389 457.237 436.223 450.905C436.223 450.905 435.614 431.965 433.574 423.175C433.574 423.175 431.357 385.093 431.124 374.551C431.024 369.508 431.312 354.794 431.612 340.801C431.955 325.503 432.343 311.075 432.343 311.075L427 280C427 280 432.343 280 433.574 281.582C434.115 282.076 434.709 282.514 435.347 282.888C442.331 287.41 467.019 301.318 467.019 301.318C467.019 301.318 480.665 306.52 483.936 313.973C487.206 321.426 489.478 326.713 491.075 328.836C492.671 330.959 493.513 340.939 493.513 340.939C493.513 340.939 498.214 359.306 501.883 362.416C505.552 365.527 508.202 385.274 508.202 385.274L475.777 409.692C475.777 409.692 472.928 450.311 472.307 451.882C471.686 453.453 484.157 488.573 484.157 488.573Z" fill="white"/>
<path id="Vector_36" opacity="0.1" d="M443.122 316.023L446.048 324.198L430.639 339.061C430.983 323.773 431.371 309.334 431.371 309.334L426.028 278.26C426.028 278.26 431.371 278.26 432.601 279.842C433.141 280.335 433.736 280.769 434.375 281.137L447.478 317.339L443.122 316.023Z" fill="black"/>
<path id="Vector_37" d="M441.891 313.677L444.829 321.851L429.42 336.715C429.764 321.416 430.152 306.988 430.152 306.988L424.797 275.914C424.797 275.914 430.152 275.914 431.371 277.495C431.915 277.987 432.509 278.424 433.145 278.801L446.259 314.993L441.891 313.677Z" fill="white"/>
<path id="Vector_38" opacity="0.1" d="M441.891 232.789C441.9 236.615 441.271 240.417 440.029 244.053C439.819 244.085 439.605 244.075 439.4 244.026C439.194 243.977 439.001 243.889 438.831 243.767C438.543 234.212 433.632 225.241 427.591 217.607C425.895 215.303 423.838 213.262 421.494 211.556C419.123 209.851 416.175 209.053 413.224 209.316C409.898 209.751 406.96 211.917 403.602 212.193C399.167 212.543 395.199 209.603 390.798 209.454C389.009 209.47 387.244 209.852 385.621 210.573C383.998 211.294 382.554 212.339 381.386 213.637C379.074 216.256 377.356 219.308 376.342 222.597C374.599 227.585 373.65 232.796 373.526 238.055C373.471 241.028 373.172 244.754 370.289 245.837C370.506 243.651 370.247 241.445 369.528 239.36C368.808 237.275 367.644 235.355 366.11 233.723L366.044 233.66C366.044 233.362 366.044 233.086 366.044 232.789C365.958 227.967 366.875 223.176 368.742 218.697C370.61 214.217 373.39 210.139 376.921 206.7C380.451 203.26 384.662 200.528 389.306 198.663C393.951 196.799 398.937 195.838 403.973 195.838C409.009 195.838 413.995 196.799 418.64 198.663C423.284 200.528 427.495 203.26 431.025 206.7C434.556 210.139 437.336 214.217 439.203 218.697C441.071 223.176 441.988 227.967 441.902 232.789H441.891Z" fill="black"/>
<path id="Vector_39" opacity="0.1" d="M299.187 398.991L287.602 378.48L283.933 410.128C283.933 410.128 285.973 424.184 285.562 426.34C285.152 428.495 293.921 447.817 293.921 447.817C293.921 447.817 322.888 497.226 334.716 499.774L374.679 472.426L364.082 459.537C364.082 459.537 360.412 458.168 359.492 459.537C359.492 459.537 339.815 427.115 337.775 424.768C335.736 422.422 336.135 417.74 336.135 417.74C336.135 417.74 333.075 414.619 334.095 411.689C335.115 408.759 328.186 398.598 328.186 398.598L334.505 392.94L299.187 398.991Z" fill="black"/>
<path id="Vector_40" d="M288.212 376.144L285.152 378.48L281.483 410.128C281.483 410.128 283.523 424.184 283.112 426.339C282.702 428.495 291.482 447.817 291.482 447.817C291.482 447.817 320.438 497.226 332.266 499.774L372.241 472.426L361.632 459.537C361.632 459.537 357.962 458.168 357.042 459.537C357.042 459.537 337.365 427.115 335.326 424.768C333.286 422.422 333.696 417.74 333.696 417.74C333.696 417.74 330.636 414.619 331.656 411.689C332.676 408.758 325.737 398.598 325.737 398.598L332.055 392.94L288.212 376.144Z" fill="white"/>
<path id="Vector_41" opacity="0.1" d="M478.074 500.125C480.292 502.704 478.895 514.287 478.895 514.287L472.776 523.991C472.776 523.991 473.141 530.254 473.164 538.694L462.876 541.773C461.946 542.051 460.961 542.112 460.001 541.952C459.042 541.791 458.137 541.412 457.361 540.848C456.585 540.284 455.962 539.55 455.542 538.708C455.123 537.867 454.92 536.941 454.95 536.009L456.724 481.216L480.724 490.007C478.684 491.366 480.923 494.699 480.923 494.699C480.923 494.699 475.835 497.545 478.074 500.125Z" fill="black"/>
<path id="Vector_42" d="M479.305 498.946C481.522 501.526 480.125 513.119 480.125 513.119L474.006 522.823C474.006 522.823 474.372 529.076 474.405 537.527L463.929 540.659C463.019 540.93 462.054 540.988 461.115 540.83C460.176 540.672 459.29 540.301 458.531 539.748C457.772 539.196 457.161 538.477 456.751 537.653C456.34 536.829 456.141 535.923 456.169 535.011L457.954 480.049L481.965 488.839C479.915 490.198 482.154 493.521 482.154 493.521C482.154 493.521 477.088 496.377 479.305 498.946Z" fill="white"/>
<path id="Vector_43" d="M487.253 472.829C487.253 472.829 485.624 482.798 481.544 483.382C477.465 483.966 475.636 499.509 471.567 498.957C467.499 498.405 470.193 484.508 470.337 481.811C470.481 479.114 465.902 467.946 469.328 465.408C472.753 462.871 483.595 465.408 483.595 465.408L487.253 472.829Z" fill="#CF6F80"/>
<g id="Doctor1">
<path id="Vector_44" opacity="0.1" d="M494.641 813.757C494.679 814.272 494.624 814.79 494.479 815.286C494.479 815.286 457.55 821.392 449.994 815.286C447.864 813.504 445.383 812.182 442.708 811.405C440.033 810.627 437.224 810.413 434.46 810.773C434.46 810.773 420.157 811.158 417.782 806.496C416.789 804.528 417.037 800.743 417.652 797C423.158 797.545 431.847 798.903 435.259 802.144C440.419 807.073 449.162 811.993 454.527 812.378C458.727 812.645 483.846 813.436 494.641 813.757Z" fill="black"/>
<path id="Vector_45" d="M464.393 781.361C464.393 781.361 454.67 781.154 449.484 785.726C444.298 790.298 419.233 786.73 420.314 785.726C421.394 784.722 421.308 777.291 421.308 777.291C406.604 757.016 419.147 748.789 419.147 748.789C419.147 748.789 412.578 716.871 411.39 705.031C410.558 696.76 409.532 674.532 408.981 661.841C408.743 656.385 408.603 652.631 408.603 652.631L420.616 650.187L422.161 649.871L451.137 644C451.137 644 451.937 649.456 452.477 653.919C452.746 655.825 452.898 657.745 452.93 659.67C452.736 661.852 452.93 668.683 452.93 668.683L453.914 689.165C453.271 691.313 452.94 693.544 452.93 695.789C453.125 698.397 456.895 735.738 456.895 735.738C456.895 735.738 463.453 758.02 461.217 759.624C458.981 761.228 464.393 781.361 464.393 781.361Z" fill="#6C63FF"/>
<path id="Vector_46" d="M429.895 667.379C385.353 675.036 344.548 653.081 344.548 653.081L344.95 645.642C344.95 645.642 345.96 561.31 343.146 554.845C340.332 548.38 338.16 515.595 339.757 510.562C341.354 505.53 333.966 430.07 333.966 430.07L332.76 399.44L289 381.532L308.555 340.487C311.191 334.73 313.462 328.811 315.356 322.766C318.746 312.111 334.542 301.642 334.542 301.642C334.542 301.642 350.729 291.184 357.117 291.577C363.505 291.971 371.903 282.323 371.903 282.323C378.107 266.428 384.94 273.626 384.94 273.626C384.94 274.381 384.288 274.72 384.636 275.978C389.416 292.901 418.575 348.561 419.107 349.534L422.703 436.678L426.299 546.958L429.895 667.379Z" fill="white"/>
<path id="Vector_47" d="M417.341 175.448C411.746 172.778 405.383 172.273 399.447 174.028C396.465 174.924 393.655 176.377 390.629 177.109C384.169 178.693 376.633 176.978 371.088 180.813C368.009 182.998 366.157 186.45 364.434 189.805L360.128 198.13C357.781 202.686 355.412 207.318 354.432 212.333C353.452 217.348 354.045 222.964 357.178 226.995C359.46 229.934 362.83 231.781 365.306 234.545C366.79 236.226 367.915 238.2 368.612 240.344C369.308 242.487 369.561 244.753 369.355 247C372.165 245.907 372.434 242.062 372.498 239.002C372.618 233.591 373.54 228.228 375.233 223.095C376.216 219.709 377.884 216.568 380.132 213.874C381.267 212.539 382.669 211.465 384.245 210.723C385.821 209.98 387.535 209.587 389.273 209.569C393.579 209.722 397.444 212.737 401.708 212.377C404.938 212.104 407.802 209.864 411.053 209.427C413.92 209.152 416.785 209.974 419.085 211.732C421.361 213.485 423.355 215.586 424.996 217.96C430.874 225.815 435.644 235.026 435.924 244.88C437.14 245.787 438.895 244.607 439.498 243.209C440.101 241.81 440.123 240.171 440.887 238.839C441.77 237.298 443.46 236.479 444.785 235.321C448.144 232.382 448.984 227.432 448.854 222.942C448.725 218.451 447.864 213.895 448.704 209.482C449.21 206.772 450.351 204.237 450.975 201.56C451.6 198.884 451.675 195.879 450.2 193.574C448.047 190.187 443.514 189.52 439.563 189.204C435.073 188.81 431.057 189.313 428.193 185.478C426.849 183.477 425.336 181.598 423.671 179.862C423.101 179.294 417.341 175.689 417.341 175.448Z" fill="#512E4E"/>
<path id="Vector_48" d="M489.303 372L495.9 374.201C495.9 374.201 498.915 385.943 498.915 392.215C498.915 398.488 503.116 399.104 503.116 399.104C503.116 399.104 507.721 404.606 505.293 408.612C502.866 412.617 501.897 422.587 501.897 422.587C501.897 422.587 502.692 441.614 499.089 444.244C495.486 446.874 494.68 453.157 494.68 453.157C494.68 453.157 488.073 465.097 488.28 467.936C488.487 470.775 479.061 490 479.061 490C479.061 490 483.676 466.109 456.834 455.787C456.834 455.787 456.638 447.677 458.641 445.454C460.643 443.231 463.767 442.219 461.808 430.984C459.849 419.748 461.242 406.323 461.242 403.627C461.242 400.931 467.251 384.116 467.251 384.116L489.303 372Z" fill="white"/>
</g>
<path id="Vector_49" opacity="0.1" d="M350.879 764.317C350.879 764.317 361.587 757.873 368.616 762.555C375.644 767.237 350.879 764.317 350.879 764.317Z" fill="black"/>
<path id="Vector_50" opacity="0.1" d="M434.087 744.39C434.087 744.39 443.565 743.222 451.525 751.429C459.484 759.636 434.087 744.39 434.087 744.39Z" fill="black"/>
<g id="Group" opacity="0.1">
<path id="Vector_51" d="M447.955 230.963C446.591 232.088 444.84 232.895 443.931 234.392C443.155 235.677 443.133 237.259 442.512 238.639C441.891 240.019 440.084 241.144 438.831 240.274C438.543 230.719 433.621 221.748 427.58 214.104C425.891 211.797 423.837 209.756 421.494 208.053C419.121 206.344 416.168 205.545 413.213 205.812C409.887 206.248 406.96 208.414 403.602 208.679C399.167 209.04 395.188 206.099 390.787 205.95C388.998 205.968 387.234 206.351 385.613 207.074C383.992 207.797 382.55 208.844 381.386 210.144C379.072 212.758 377.354 215.806 376.342 219.094C374.6 224.082 373.651 229.293 373.526 234.551C373.46 237.513 373.172 241.208 370.312 242.312C370.378 243.097 370.378 243.885 370.312 244.669C373.194 243.607 373.482 239.87 373.549 236.898C373.672 231.639 374.621 226.428 376.364 221.44C377.376 218.15 379.094 215.098 381.408 212.48C382.575 211.183 384.017 210.139 385.638 209.418C387.259 208.697 389.022 208.315 390.809 208.297C395.243 208.445 399.234 211.376 403.624 211.025C406.949 210.76 409.898 208.583 413.235 208.159C416.19 207.892 419.143 208.69 421.516 210.399C423.86 212.102 425.913 214.143 427.602 216.45C433.643 224.084 438.565 233.033 438.854 242.609C440.106 243.491 441.913 242.344 442.534 240.985C443.155 239.626 443.177 238.034 443.953 236.738C444.862 235.242 446.614 234.445 447.977 233.32C451.436 230.464 452.3 225.655 452.167 221.291C452.167 221.153 452.167 221.015 452.167 220.888C451.957 224.667 450.904 228.521 447.955 230.963Z" fill="black"/>
<path id="Vector_52" d="M366.121 230.209C363.572 227.523 360.091 225.729 357.752 222.884C355.782 220.365 354.657 217.333 354.526 214.189C354.177 218.118 355.323 222.036 357.752 225.22C360.091 228.075 363.572 229.87 366.121 232.556C368.569 235.183 370.039 238.513 370.301 242.026C370.47 239.888 370.188 237.74 369.469 235.709C368.751 233.679 367.612 231.808 366.121 230.209Z" fill="black"/>
<path id="Vector_53" d="M454.329 198.158C453.675 200.759 452.511 203.233 451.979 205.855C451.664 207.607 451.549 209.387 451.635 211.163C451.672 210.151 451.787 209.144 451.979 208.148C452.511 205.515 453.675 203.052 454.329 200.451C454.71 199.016 454.834 197.53 454.695 196.056C454.626 196.764 454.504 197.467 454.329 198.158Z" fill="black"/>
</g>
<path id="Vector_54" d="M154.62 472.585H147.669V622.459H154.62V472.585Z" fill="#535461"/>
<path id="Vector_55" d="M197.864 628.755L197.244 638.278H105.034L104.413 628.755H197.864Z" fill="#9D9CB5"/>
<path id="Vector_56" d="M196.989 642.248L196.379 651.782H105.91L105.289 642.248H196.989Z" fill="#9D9CB5"/>
<path id="Vector_57" d="M196.113 655.763L195.503 665.286H106.785L106.165 655.763H196.113Z" fill="#9D9CB5"/>
<g id="Vector_58">
<path d="M71.356 456.119C71.356 456.119 98.9147 470.77 107.75 482.894C116.585 495.018 151.172 511.389 151.172 511.389" fill="#2CDE00"/>
<path d="M71.356 456.119C71.356 456.119 98.9147 470.77 107.75 482.894C116.585 495.018 151.172 511.389 151.172 511.389" stroke="#535461" stroke-width="2" stroke-miterlimit="10"/>
</g>
<g id="Tree">
<g id="Group1">
<path id="Vector_59" d="M93.8043 528.757C134.278 556.806 151.172 600.674 151.172 600.674C151.172 600.674 102.396 599.071 61.9111 571.022C21.4266 542.973 4.56543 499.116 4.56543 499.116C4.56543 499.116 53.3198 500.708 93.8043 528.757Z" fill="#02E419"/>
</g>
<path id="Vector_60" d="M183.154 510.178C157.846 536.815 152.491 571.627 152.491 571.627C152.491 571.627 188.176 563.24 213.462 536.592C238.748 509.945 244.125 475.144 244.125 475.144C244.125 475.144 208.462 483.541 183.154 510.178Z" fill="#37FC06"/>
<g id="Group2">
<g id="Tree_2">
<path id="Vector_61" d="M198.297 622.003L197.864 628.755L197.244 638.31L196.989 642.28L196.379 651.835L196.113 655.806L195.492 665.361L188.486 773.724C188.182 778.386 186.033 782.762 182.479 785.961C178.924 789.16 174.23 790.942 169.352 790.944H132.925C128.048 790.942 123.356 789.16 119.803 785.961C116.25 782.761 114.104 778.385 113.803 773.724L106.83 665.286L106.209 655.731L105.954 651.761L105.333 642.206L105.078 638.235L104.457 628.68L104.014 621.928C103.937 620.629 104.138 619.328 104.605 618.105C105.072 616.883 105.794 615.765 106.729 614.819C107.663 613.874 108.789 613.121 110.038 612.607C111.287 612.094 112.632 611.83 113.991 611.832H188.497C189.851 611.843 191.188 612.12 192.426 612.645C193.664 613.171 194.777 613.933 195.695 614.886C196.613 615.839 197.318 616.962 197.766 618.186C198.213 619.41 198.394 620.709 198.297 622.003Z" fill="#3F3D56"/>
</g>
<g id="Vector_62">
<path d="M4.5321 499.116C4.5321 499.116 55.171 526.029 71.4114 548.313C87.6517 570.597 151.172 600.674 151.172 600.674" fill="#1EF419"/>
<path d="M4.5321 499.116C4.5321 499.116 55.171 526.029 71.4114 548.313C87.6517 570.597 151.172 600.674 151.172 600.674" stroke="#535461" stroke-width="2" stroke-miterlimit="10"/>
</g>
<path id="Vector_63" d="M119.933 472.256C141.96 487.512 151.172 511.389 151.172 511.389C151.172 511.389 124.622 510.518 102.584 495.262C80.5459 480.006 71.356 456.119 71.356 456.119C71.356 456.119 97.8948 456.989 119.933 472.256Z" fill="#52FF00"/>
<path id="Vector_64" d="M244.147 475.154C244.147 475.154 211.178 502.46 202.798 521.273C194.417 540.085 152.491 571.627 152.491 571.627" stroke="#535461" stroke-width="2" stroke-miterlimit="10"/>
</g>
</g>
<path id="Vector_65" d="M1082.08 789.373L1080.76 804.416L1085.19 803.567L1084.52 787.249L1082.08 789.373Z" fill="#1D2366"/>
<path id="Vector_66" d="M981.171 717.944C975.839 732.489 977.346 752.119 978.544 761.653C978.987 765.177 979.397 767.322 979.397 767.322C979.397 767.322 971.427 784.712 970.762 785.37C970.096 786.028 947.304 799.352 947.304 799.352L931.375 808.259C931.375 808.259 915.212 801.475 922.961 799.14C924.544 798.531 925.97 797.6 927.14 796.411C934.9 789.351 944.644 771.802 944.644 771.802C944.644 771.802 945.309 762.895 947.748 758.659C950.187 754.423 949.3 709.908 949.3 709.908L949.488 637.343V627.884L979.807 628.096C979.999 631.308 980.436 634.501 981.115 637.651C982.204 643.089 983.614 648.462 985.339 653.746C990.682 670.297 988.465 698.017 981.171 717.944Z" fill="#FFB0B1"/>
<path id="Vector_67" opacity="0.1" d="M979.397 767.322C979.397 767.322 971.427 784.712 970.762 785.37C970.096 786.028 947.304 799.352 947.304 799.352L931.375 808.259C931.375 808.259 915.212 801.475 922.961 799.14C924.544 798.531 925.97 797.6 927.14 796.411L927.827 801.051L933.137 800.838L978.588 761.674C978.987 765.177 979.397 767.322 979.397 767.322Z" fill="black"/>
<path id="Vector_68" d="M978.843 762.661L933.137 802.091L927.827 802.303L926.719 794.872C926.719 794.872 917.429 806.317 896.788 805.68C896.788 805.68 884.394 813.525 902.763 813.95C921.131 814.374 944.588 813.313 944.588 813.313C944.588 813.313 960.973 788.895 974.686 792.08V810.521H978.898V791.91C980.857 790.647 982.529 789.018 983.813 787.121C985.097 785.223 985.966 783.097 986.37 780.869C986.735 778.574 986.477 776.228 985.62 774.056C984.764 771.884 983.339 769.96 981.481 768.468C980.652 767.724 979.99 766.824 979.536 765.826C979.082 764.827 978.846 763.75 978.843 762.661Z" fill="#1D2366"/>
<path id="Vector_69" d="M1086.3 740.621C1083.35 750.707 1084.95 756.387 1086.97 759.434V759.498C1089.56 763.26 1091.36 767.467 1092.27 771.887L1092.45 772.843L1071.65 801.879L1060.37 806.125C1060.37 806.125 1042.22 800.191 1045.53 798.492C1046.37 798.078 1047.66 795.87 1049.15 792.823C1053.58 783.64 1059.7 766.696 1059.7 766.696V766.558C1060.34 759.561 1061.36 752.586 1062.49 745.643C1064.52 733.147 1060.8 702.476 1060.8 702.476C1060.8 702.476 1059.47 665.18 1056.59 656.697C1055.28 652.385 1054.42 647.962 1054 643.49C1053.4 638.182 1053.27 633.808 1053.27 633.808C1053.27 633.808 1065.22 617.883 1087.13 635.082C1088.88 636.454 1090.42 638.055 1091.71 639.838C1106.84 660.456 1094.65 705.873 1094.65 705.873C1094.65 705.873 1091.61 722.393 1086.3 740.621Z" fill="#FFB0B1"/>
<path id="Vector_70" opacity="0.1" d="M1092.48 772.843L1071.68 801.879L1060.4 806.125C1060.4 806.125 1042.25 800.191 1045.57 798.492C1046.4 798.078 1047.7 795.87 1049.18 792.823C1056.86 792.759 1060.84 799.766 1060.84 799.766L1070.58 798.28C1070.58 798.28 1083.41 774.117 1086.3 772.641C1089.18 771.165 1086.74 761.61 1086.74 761.61V759.179C1086.82 759.264 1086.88 759.359 1086.97 759.444V759.508C1089.56 763.27 1091.36 767.478 1092.27 771.898L1092.48 772.843Z" fill="black"/>
<path id="Vector_71" d="M1061.51 800.392C1061.51 800.392 1055.97 790.647 1045.35 794.246C1045.35 794.246 1039.37 805.924 1033.4 807.814C1027.42 809.703 1029.42 816.073 1042.92 813.748C1056.42 811.423 1076.77 809.502 1076.77 809.502L1077.66 797.622L1091.38 780.879C1091.38 780.879 1099.56 773.777 1087.39 759.795V762.226C1087.39 762.226 1089.83 771.781 1086.95 773.257C1084.07 774.732 1071.27 798.906 1071.27 798.906L1061.51 800.392Z" fill="#1D2366"/>
<path id="Vector_72" opacity="0.1" d="M979.841 628.075C980.032 631.287 980.469 634.48 981.149 637.63C968.666 635.878 957.082 636.749 949.488 637.322V627.863L979.841 628.075Z" fill="black"/>
<path id="Vector_73" opacity="0.1" d="M1092.94 642.482C1092.94 642.482 1075.2 643.31 1054.05 643.48C1053.45 638.172 1053.32 633.798 1053.32 633.798C1053.32 633.798 1065.27 617.873 1087.17 635.072C1088.92 636.443 1090.46 638.044 1091.75 639.828C1092.09 640.733 1092.49 641.619 1092.94 642.482Z" fill="black"/>
<path id="Vector_74" d="M1092.94 640.571C1092.94 640.571 1015.25 644.17 991.569 637.811C967.89 631.451 944.422 636.961 940.886 635.486C937.35 634.01 940.221 610.898 943.325 605.175C946.429 599.453 963.456 541.582 963.456 541.582L979.841 459.771L997.101 455.217L998.32 454.887L1028.4 446.946L1050.43 441.118C1050.43 441.118 1094.25 604.963 1090.5 617.045C1089.13 621.671 1088.91 626.538 1089.85 631.26C1090.43 634.485 1091.47 637.618 1092.94 640.571Z" fill="#1D2366"/>
<path id="Vector_75" d="M922.728 403.822C922.728 403.822 907.208 419.747 918.959 428.622C930.709 437.497 938.436 429.471 938.436 429.471L922.728 403.822Z" fill="#C7DAF5"/>
<path id="Vector_76" opacity="0.1" d="M922.728 403.822C922.728 403.822 907.208 419.747 918.959 428.622C930.709 437.497 938.436 429.471 938.436 429.471L922.728 403.822Z" fill="black"/>
<path id="Vector_77" d="M1048.12 299.121C1048.12 299.121 1046.3 300.778 1043.56 303.219C1039.66 306.712 1033.88 311.819 1028.76 316.097C1021.67 322.011 1015.81 326.353 1017.91 322.648C1020 318.942 1019.6 312.488 1018.56 306.447C1018.49 306.043 1018.42 305.64 1018.34 305.247C1017.48 300.811 1016.33 296.428 1014.92 292.125C1014.92 292.125 1026.38 277.941 1032.72 272.346C1035.08 270.223 1036.73 269.353 1036.83 270.828C1036.94 272.814 1038.49 277.198 1040.42 281.848C1040.48 281.997 1040.53 282.135 1040.6 282.283C1041.89 285.468 1043.34 288.738 1044.61 291.562C1046.56 295.894 1048.12 299.121 1048.12 299.121Z" fill="#FFB0B1"/>
<path id="Vector_78" opacity="0.1" d="M1040.6 282.283C1039.52 287.832 1036.91 293.002 1033.03 297.252C1029.16 301.503 1024.16 304.678 1018.56 306.447C1017.68 301.6 1016.46 296.816 1014.92 292.125C1014.92 292.125 1036.5 265.424 1036.83 270.828C1036.91 272.877 1038.59 277.421 1040.6 282.283Z" fill="black"/>
<path id="Vector_79" opacity="0.1" d="M1016.41 313.581L1019.21 309.812C1019.21 309.812 1021.06 320.62 1027.86 315.853C1034.67 311.086 1035 351.726 1035 351.726L1027.7 456.331L974.908 453.306L976.404 402.76L982.379 377.28L997.156 340.239L1005.95 327.998L1016.41 313.581Z" fill="black"/>
<path id="Vector_80" d="M1035 352.374L1028.35 446.957L1027.65 456.979L998.22 455.291L997.112 455.227L974.941 453.953L976.437 403.397L982.413 377.917L997.19 340.876L1005.98 328.635L1016.45 314.165L1019.24 310.407C1019.24 310.407 1021.09 321.214 1027.9 316.448L1028.04 316.352C1034.69 312.318 1035 352.374 1035 352.374Z" fill="#1D2366"/>
<path id="Vector_81" d="M983.155 369.063C983.155 369.063 980.506 374.371 975.185 373.512C969.864 372.652 969.875 392.621 969.875 392.621C969.875 392.621 966.338 395.806 963.9 393.046C961.461 390.286 955.031 399.618 955.031 399.618L914.746 401.316C914.746 401.316 932.672 409.162 929.157 432.901C929.157 432.901 990.017 429.291 992.013 423.781C994.008 418.271 983.155 369.063 983.155 369.063Z" fill="white"/>
<path id="Vector_82" opacity="0.03" d="M983.155 369.063C983.155 369.063 980.506 374.371 975.185 373.512C969.864 372.652 969.875 392.621 969.875 392.621C969.875 392.621 966.338 395.806 963.9 393.046C961.461 390.286 955.031 399.618 955.031 399.618L914.746 401.316C914.746 401.316 932.672 409.162 929.157 432.901C929.157 432.901 990.017 429.291 992.013 423.781C994.008 418.271 983.155 369.063 983.155 369.063Z" fill="black"/>
<path id="Vector_83" d="M866.081 413.791L876.701 422.475L964.121 440.067L953.28 429.471L866.081 413.791Z" fill="white"/>
<path id="Vector_84" d="M1016.58 316.925C1015.13 319.049 1010.97 329.92 1007.5 339.411C1004.61 347.32 1002.19 354.274 1002.19 354.274C1002.19 354.274 996.547 389.458 993.664 395.817C990.782 402.176 992.345 426.976 992.345 426.976L981.603 488.223C981.603 488.223 976.737 519.808 969.221 538.673C961.804 557.242 953.546 565.947 953.291 566.223C956.616 561.913 974.741 477.044 974.741 477.044L980.728 370.008C980.728 370.008 981.603 359.837 982.49 351.142C983.377 342.447 1001.34 330.578 1001.34 330.578L1018.65 306.999C1020.39 309.228 1019.23 313.114 1016.58 316.925Z" fill="white"/>
<path id="Vector_85" d="M971.427 454.484C971.427 454.484 945.93 453.422 933.581 439.217C921.231 425.012 962.126 433.548 962.126 433.548L972.757 435.884L971.427 454.484Z" fill="#FFB0B1"/>
<path id="Vector_86" opacity="0.1" d="M1090.5 617.055C1089.13 621.682 1088.91 626.549 1089.85 631.271C1062.04 633.161 1032.29 625.963 1032.29 625.963C1026.74 630.846 1012.14 638.044 1012.14 638.044L1004.18 543.557C999.096 530.817 997.101 464.071 997.101 464.071C997.101 464.071 997.555 460.578 998.21 455.344C998.21 455.217 998.209 455.078 998.265 454.951C1000.25 440.332 1004.18 412.888 1006.11 409.183C1008.77 404.087 997.932 390.53 997.932 390.53L1002.87 350.24L1003.46 345.378C1013.86 340.929 1021.83 326.724 1021.83 326.724L1027.95 316.458C1034.6 312.371 1034.95 352.427 1034.95 352.427L1028.3 447.01L1050.33 441.181C1050.33 441.181 1094.25 604.974 1090.5 617.055Z" fill="black"/>
<path id="Vector_87" opacity="0.03" d="M1060.84 325.196C1060.84 325.196 1040.04 363.129 1042.45 377.546C1044.87 391.963 1051.74 408.281 1048.43 412.092C1047.29 413.536 1045.82 414.708 1044.13 415.517C1042.44 416.325 1040.57 416.748 1038.68 416.753C1035.36 416.965 1026.49 422.9 1026.49 423.537C1026.49 424.174 1018.3 424.174 1010.97 427.146C1003.64 430.119 992.822 431.807 992.822 431.807C992.822 431.807 971.759 431.17 969.797 433.081C967.835 434.992 965.817 446.426 970.019 455.546C974.22 464.665 978.887 471.47 982.413 472.713C985.938 473.955 1008.31 466.778 1026.46 465.079C1044.6 463.381 1064.3 449.611 1064.3 449.611C1064.3 449.611 1086 442.179 1089.8 429.684C1093.6 417.188 1085.15 348.51 1085.15 348.51C1085.15 348.51 1078.77 316.501 1060.84 325.196Z" fill="black"/>
<path id="Vector_88" opacity="0.03" d="M1058.18 322.011C1058.18 322.011 1037.37 359.954 1039.81 374.361C1042.25 388.768 1049.1 405.096 1045.78 408.918C1044.64 410.363 1043.17 411.537 1041.48 412.346C1039.79 413.154 1037.93 413.576 1036.04 413.578C1032.72 413.791 1023.85 419.725 1023.85 420.362C1023.85 420.999 1015.66 420.999 1008.33 423.961C1001 426.923 990.183 428.622 990.183 428.622C990.183 428.622 969.121 427.985 967.17 429.896C965.219 431.807 963.179 443.252 967.392 452.361C971.604 461.47 976.26 468.286 979.785 469.528C983.31 470.77 1005.68 463.593 1023.83 461.905C1041.98 460.217 1061.67 446.426 1061.67 446.426C1061.67 446.426 1083.36 438.994 1087.12 426.509C1090.87 414.024 1082.47 345.325 1082.47 345.325C1082.47 345.325 1076.11 313.326 1058.18 322.011Z" fill="black"/>
<path id="Vector_89" d="M1060.19 323.285C1060.19 323.285 1039.38 361.228 1041.82 375.635C1044.26 390.042 1051.11 406.37 1047.8 410.181C1046.66 411.63 1045.19 412.806 1043.5 413.617C1041.81 414.428 1039.94 414.851 1038.05 414.852C1034.73 415.065 1025.86 420.999 1025.86 421.626C1025.86 422.252 1017.68 422.263 1010.34 425.235C1003 428.208 992.19 429.896 992.19 429.896C992.19 429.896 971.127 429.259 969.165 431.17C967.203 433.081 965.186 444.526 969.387 453.635C973.588 462.744 978.255 469.559 981.781 470.802C985.306 472.044 1007.68 464.867 1025.82 463.168C1043.97 461.47 1063.67 447.7 1063.67 447.7C1063.67 447.7 1085.36 440.268 1089.17 427.773C1092.97 415.277 1084.58 346.599 1084.58 346.599C1084.58 346.599 1078.1 314.643 1060.19 323.285Z" fill="white"/>
<path id="Vector_90" opacity="0.1" d="M1059.73 425.055C1059.73 425.055 1043.11 421.87 1048.89 427.178C1054.68 432.487 1054.65 437.137 1061.73 436.924C1068.81 436.712 1059.73 425.055 1059.73 425.055Z" fill="black"/>
<path id="Vector_91" opacity="0.1" d="M1087.84 539.268C1087.84 539.268 1080.32 544.141 1094.7 555.373C1109.08 566.605 1087.84 539.268 1087.84 539.268Z" fill="black"/>
<path id="Vector_92" opacity="0.1" d="M1073.49 579.324C1073.49 579.961 1070.83 602.68 1080.79 608.36C1090.74 614.04 1073.49 579.324 1073.49 579.324Z" fill="black"/>
<path id="Vector_93" d="M915.433 401.263C907.407 401.529 890.07 403.875 899.06 419.938C907.008 434.153 920.367 424.651 927.883 417.443C926.049 410.722 921.593 404.931 915.433 401.263Z" fill="#FFB0B1"/>
<path id="Vector_94" opacity="0.1" d="M1057.53 302.965C1049.01 308.538 1041.88 313.241 1040.48 314.218C1036.67 316.925 1029.39 332.818 1024.7 340.929C1020.97 347.459 1008.83 349.136 1004.25 349.55L1004.84 344.698C1015.25 340.239 1023.22 326.034 1023.22 326.034L1043.79 291.488L1050.88 297.656C1050.88 297.656 1053.54 299.78 1057.53 302.965Z" fill="black"/>
<path id="Vector_95" d="M1057.53 302.328C1049.01 307.901 1041.88 312.604 1040.48 313.592C1036.67 316.288 1029.39 332.181 1024.7 340.292C1020.97 346.822 1008.83 348.499 1004.25 348.913L1004.84 344.061C1015.25 339.602 1023.22 325.397 1023.22 325.397L1043.79 290.851L1050.88 296.998C1050.88 296.998 1053.54 299.1 1057.53 302.328Z" fill="#DCE7FF"/>
<path id="Vector_96" d="M1041.14 275.277C1041.15 281.65 1039.13 287.873 1035.36 293.123C1030.9 299.33 1024.27 303.801 1016.66 305.726C1009.06 307.65 1000.99 306.9 993.912 303.612C986.835 300.324 981.224 294.716 978.096 287.805C974.968 280.893 974.531 273.137 976.863 265.944C979.196 258.75 984.144 252.596 990.809 248.597C997.475 244.598 1005.42 243.02 1013.19 244.149C1020.97 245.278 1028.07 249.039 1033.19 254.751C1038.32 260.462 1041.14 267.744 1041.14 275.277Z" fill="#FFB0B1"/>
<g class="Doctor2">
<path id="Vector_97" d="M1112.19 500.804C1112.19 500.804 1093.89 413.6 1100.9 402.75C1100.9 402.75 1101.15 392.664 1100.73 379.807C1100.73 379.319 1100.73 378.83 1100.73 378.331C1101.96 379.118 1103.25 379.828 1104.58 380.455C1111.03 383.631 1118.44 384.547 1125.53 383.045L1119.98 377.132C1118.65 375.72 1117.27 374.191 1116.98 372.322C1116.69 370.454 1117.49 368.787 1118.18 367.12C1123.44 354.381 1123.72 338.36 1113.58 328.635C1105.01 320.461 1102.92 309.908 1093.62 302.444C1086.83 296.977 1083.09 288.961 1079.57 281.211C1076.58 274.661 1073.58 268.057 1071.87 261.114C1070.54 255.689 1070.01 250.073 1068.18 244.775C1066.35 239.478 1062.93 234.329 1057.57 231.961C1055.67 231.122 1053.55 230.645 1051.81 229.53C1049.52 228.054 1048.15 225.655 1046.5 223.553C1038.11 212.936 1010 219.189 996.702 223.5C993.085 224.585 989.736 226.362 986.858 228.723L986.98 228.532C987.08 228.373 987.202 228.213 987.312 228.054C985.856 229.182 984.599 230.526 983.588 232.035C981.648 234.976 980.838 238.405 979.22 241.59C977.269 245.359 966.416 255.88 971.083 260.116C971.41 260.401 971.785 260.63 972.192 260.796C973.944 261.494 975.873 261.679 977.734 261.326L977.535 261.783C975.941 265.52 975.124 269.52 975.129 273.557C975.129 291 990.15 305.141 1008.7 305.141C1012.18 305.144 1015.65 304.632 1018.97 303.623C1019.05 304.026 1019.12 304.43 1019.19 304.833C1019.19 304.992 1019.25 305.152 1019.27 305.311L1018.68 306.096C1018.66 306.048 1018.62 306.002 1018.58 305.958L1001.18 329.251C998.52 331.045 983.2 341.662 982.335 349.624C981.426 358.341 980.517 368.543 980.517 368.543L980.395 370.73C979.634 371.339 978.745 371.782 977.788 372.03C976.831 372.277 975.829 372.323 974.852 372.163C969.42 371.314 969.42 391.273 969.42 391.273C969.42 391.273 965.806 394.458 963.323 391.698C960.84 388.937 954.277 398.291 954.277 398.291L913.15 399.989L912.208 400.042L909.991 393.471C909.752 392.777 909.237 392.202 908.559 391.87C907.88 391.539 907.092 391.476 906.365 391.698C906.194 391.752 906.027 391.819 905.867 391.899L905.711 391.984L905.423 392.175L905.279 392.303C905.2 392.372 905.126 392.446 905.057 392.526L904.924 392.674L904.858 392.738C904.602 393.077 904.432 393.469 904.363 393.882C904.294 394.295 904.327 394.718 904.459 395.116L906.365 400.754C898.428 402.282 890.314 406.593 896.932 418.462L863.387 412.527L874.24 421.254L930.266 432.327C929.523 433.601 930.011 435.448 932.328 438.05C942.305 449.271 960.485 452.318 967.802 453.104C969.734 457.243 972.147 461.161 974.996 464.782L974.364 475.961C974.364 475.961 955.84 561.17 952.448 565.491C954.161 563.632 955.728 561.656 957.137 559.577C951.761 577.084 944.245 601.046 942.272 604.634C939.101 610.367 936.164 633.564 939.777 635.05C940.886 635.507 944.056 635.284 948.579 634.955V636.876L948.38 709.695C948.38 709.695 949.289 754.359 946.795 758.616C944.3 762.874 943.635 771.802 943.635 771.802C943.635 771.802 933.658 789.415 925.754 796.496C925.7 796.551 925.641 796.601 925.577 796.645L925.333 794.989C925.333 794.989 915.833 806.476 894.814 805.828C894.814 805.828 882.166 813.706 900.923 814.13C919.679 814.555 943.635 813.493 943.635 813.493C943.635 813.493 960.363 789.075 974.376 792.26V810.765H978.666V791.963C980.655 790.709 982.358 789.08 983.671 787.177C984.984 785.274 985.879 783.135 986.304 780.89C986.671 778.576 986.402 776.211 985.523 774.027C984.644 771.843 983.186 769.916 981.293 768.437C980.442 767.7 979.76 766.803 979.289 765.802C978.817 764.801 978.568 763.717 978.555 762.619L978.4 762.746C978.4 762.375 978.3 761.992 978.255 761.6C977.025 752.045 975.484 732.33 980.927 717.743C988.388 697.741 990.649 669.883 985.217 653.3C983.465 647.999 982.025 642.608 980.905 637.152C980.772 636.462 980.65 635.804 980.539 635.188C984.252 635.669 987.929 636.379 991.547 637.312C1004.13 640.635 1031.65 641.25 1055.16 641.07C1055.21 641.686 1055.28 642.333 1055.36 642.981C1055.77 647.482 1056.65 651.934 1057.97 656.273C1060.92 664.766 1062.27 702.211 1062.27 702.211C1062.27 702.211 1066.08 732.999 1064 745.526C1062.89 752.491 1061.79 759.487 1061.15 766.515V766.653C1061.15 766.653 1054.92 783.64 1050.37 792.865C1050.26 793.099 1050.13 793.332 1050.02 793.555C1048.81 793.661 1047.61 793.915 1046.46 794.309C1046.46 794.309 1040.36 805.987 1034.27 807.92C1028.18 809.852 1030.2 816.211 1043.98 813.876C1057.76 811.54 1078.57 809.629 1078.57 809.629L1079.47 797.717L1083.7 792.642L1082.59 804.522L1087.1 803.673L1086.51 789.224L1093.43 780.922C1093.43 780.922 1101.8 773.787 1089.37 759.752V760.06C1089.23 759.858 1089.11 759.646 1088.97 759.444V759.381C1086.91 756.323 1085.26 750.622 1088.27 740.505C1093.7 722.223 1096.86 705.629 1096.86 705.629C1096.86 705.629 1108.99 661.178 1094.41 640.146H1095.05C1093.56 637.187 1092.5 634.042 1091.92 630.804C1091.84 630.421 1091.78 630.029 1091.72 629.625C1102.5 629.031 1113.09 627.162 1121.72 623.128C1121.69 623.085 1116.49 517.599 1112.19 500.804ZM975.251 427.231V427.444L973.034 427.55L975.251 427.231ZM967.647 428.24C967.282 428.317 966.941 428.473 966.649 428.696C965.696 429.988 965.097 431.489 964.908 433.06L961.45 432.317C961.45 432.317 959.022 431.818 955.53 431.255L953.878 429.662C958.423 429.302 963.146 428.771 967.647 428.24Z" fill="url(#paint0_linear_1_2)"/>
<path id="Vector_98" d="M1119.04 623.584C1088.72 638.002 1033.62 624.646 1033.62 624.646C1028.07 629.53 1013.47 636.728 1013.47 636.728L1005.5 542.24C1000.43 529.501 998.431 462.754 998.431 462.754C998.431 462.754 1004.84 412.952 1007.5 407.867C1008.28 406.38 1007.9 404.172 1006.98 401.794C1002.45 390.475 1000.79 378.292 1002.12 366.239L1004.25 348.924L1004.84 344.072C1015.25 339.613 1023.22 325.408 1023.22 325.408L1028.76 316.108L1038.96 298.973L1043.79 290.862L1044.61 291.573L1050.88 297.009C1050.88 297.009 1053.54 299.132 1057.53 302.317C1066.21 309.324 1081.21 321.66 1088.94 329.209C1095.75 335.855 1097.9 361.706 1098.52 381.166C1098.93 393.98 1098.69 404.024 1098.69 404.024C1091.83 414.842 1109.77 501.696 1109.77 501.696C1113.95 518.481 1119.04 623.584 1119.04 623.584Z" fill="white"/>
<path id="Vector_99" opacity="0.1" d="M1098.52 381.177C1094.02 378.525 1090.35 374.753 1087.91 370.263C1086.06 366.759 1084.83 362.715 1081.67 360.23C1078.82 358.001 1075.02 357.459 1071.47 356.461C1059.81 353.16 1050.03 342.968 1049.67 331.332C1049.49 325.854 1051.28 320.386 1050.47 314.961C1050.01 311.891 1048.73 308.985 1046.76 306.521C1045.79 305.343 1044.72 304.239 1043.56 303.219C1042.01 301.818 1040.38 300.459 1038.96 298.973C1038.07 298.052 1037.29 297.037 1036.63 295.947C1036.1 295.055 1035.68 294.112 1035.36 293.134C1033.14 286.636 1035.16 278.929 1032.72 272.357L1032.59 271.996C1031.67 269.66 1029.79 267.325 1027.19 267.144C1024.58 266.964 1022.35 269.034 1019.87 269.958C1014.67 271.89 1009.06 268.599 1004.73 265.244C1000.39 261.889 995.505 258.057 989.995 258.8C986.348 259.299 983.466 261.677 980.107 262.908C979.348 263.189 978.566 263.406 977.768 263.556C980.61 256.767 985.833 251.138 992.538 247.635C999.244 244.133 1007.01 242.977 1014.51 244.365C1022.01 245.753 1028.77 249.599 1033.63 255.242C1038.49 260.885 1041.15 267.973 1041.14 275.287C1041.15 277.496 1040.91 279.699 1040.42 281.859C1040.48 282.007 1040.53 282.145 1040.6 282.294C1041.89 285.479 1043.34 288.749 1044.61 291.573L1050.88 297.009C1050.88 297.009 1053.54 299.132 1057.53 302.317C1066.21 309.324 1081.21 321.66 1088.94 329.209C1095.75 335.876 1097.88 361.717 1098.52 381.177Z" fill="black"/>
<path id="Vector_100" d="M979.719 243.512C981.304 240.422 982.091 236.961 983.987 234.031C986.769 229.785 991.625 227.067 996.613 225.421C1009.64 221.122 1037.16 214.879 1045.39 225.421C1047.01 227.545 1048.35 229.901 1050.59 231.367C1052.3 232.481 1054.36 232.959 1056.23 233.798C1061.47 236.155 1064.82 241.293 1066.61 246.538C1068.39 251.782 1068.92 257.409 1070.23 262.813C1071.91 269.745 1074.84 276.317 1077.77 282.846C1081.22 290.554 1084.88 298.548 1091.53 303.994C1100.61 311.426 1102.61 321.947 1111.04 330.1C1121.02 339.783 1120.69 355.761 1115.55 368.447C1114.87 370.114 1114.11 371.855 1114.38 373.628C1114.64 375.401 1116.02 377.015 1117.31 378.427L1122.77 384.319C1109.86 387.302 1095.26 380.848 1089.26 369.52C1087.4 366.016 1086.17 361.982 1083 359.487C1080.17 357.258 1076.35 356.727 1072.82 355.729C1061.15 352.416 1051.38 342.214 1051.01 330.578C1050.83 325.111 1052.62 319.643 1051.81 314.229C1051.36 311.138 1050.08 308.211 1048.09 305.735C1045.05 301.924 1040.45 299.366 1037.96 295.119C1033.76 288.016 1036.95 278.791 1033.93 271.168C1033 268.832 1031.13 266.497 1028.53 266.316C1025.92 266.136 1023.7 268.206 1021.2 269.13C1016.01 271.062 1010.4 267.781 1006.07 264.416C1001.73 261.05 996.846 257.228 991.325 257.982C987.678 258.471 984.807 260.849 981.448 262.091C978.965 263.004 973.932 263.821 971.759 261.815C967.17 257.77 977.801 247.291 979.719 243.512Z" fill="#591D4B"/>
<path id="Vector_101" opacity="0.1" d="M1092.34 366.016C1090.47 362.513 1089.26 358.479 1086.08 355.994C1083.25 353.765 1079.43 353.223 1075.89 352.225C1064.24 348.924 1054.46 338.721 1054.08 327.085C1053.9 321.618 1055.69 316.14 1054.89 310.725C1054.43 307.654 1053.15 304.748 1051.18 302.285C1048.12 298.474 1043.52 295.915 1041.04 291.669C1036.84 284.577 1040.04 275.351 1037 267.718C1036.08 265.393 1034.2 263.057 1031.61 262.866C1029.02 262.675 1026.77 264.766 1024.28 265.69C1019.09 267.622 1013.47 264.331 1009.15 260.976C1004.83 257.621 999.917 253.789 994.407 254.532C990.76 255.031 987.878 257.409 984.53 258.64C982.047 259.553 977.003 260.382 974.83 258.375C970.263 254.128 980.894 243.671 982.801 239.913C984.386 236.813 985.173 233.362 987.08 230.432C987.179 230.273 987.29 230.114 987.401 229.955C985.975 231.086 984.744 232.426 983.754 233.925C981.858 236.855 981.071 240.295 979.486 243.406C977.568 247.164 966.937 257.653 971.515 261.868C973.733 263.885 978.721 263.057 981.204 262.144C984.53 260.902 987.434 258.524 991.081 258.035C996.624 257.282 1001.5 261.114 1005.83 264.469C1010.15 267.824 1015.8 271.115 1020.97 269.183C1023.45 268.259 1025.62 266.178 1028.28 266.369C1030.95 266.56 1032.72 268.885 1033.68 271.221C1036.71 278.844 1033.52 288.07 1037.72 295.172C1040.2 299.344 1044.8 301.956 1047.85 305.789C1049.83 308.265 1051.11 311.191 1051.56 314.282C1052.37 319.696 1050.59 325.164 1050.77 330.631C1051.13 342.309 1060.91 352.47 1072.57 355.782C1076.09 356.78 1079.92 357.311 1082.76 359.54C1085.94 362.035 1087.19 366.069 1089.01 369.573C1095.02 380.901 1109.62 387.356 1122.52 384.372L1119.95 381.591C1108.77 381.75 1097.45 375.656 1092.34 366.016Z" fill="black"/>
</g>
<path id="Vector_102" opacity="0.1" d="M1015.91 317.562C1014.46 319.686 1010.3 330.557 1006.83 340.048C1003.59 338.838 1000.64 331.12 1000.64 331.12L1017.95 307.53C1019.73 309.865 1018.56 313.74 1015.91 317.562Z" fill="black"/>
<path id="Vector_103" d="M1016.58 316.925C1015.13 319.049 1010.97 329.92 1007.5 339.411C1004.25 338.211 1001.3 330.483 1001.3 330.483L1018.62 306.903C1020.39 309.228 1019.23 313.114 1016.58 316.925Z" fill="#DCE7FF"/>
<path id="Vector_104" d="M915.899 425.384L906.299 396.39C906.185 396.051 906.143 395.693 906.174 395.338C906.205 394.983 906.309 394.637 906.48 394.32C906.651 394.004 906.885 393.722 907.17 393.493C907.455 393.263 907.784 393.09 908.139 392.982C908.854 392.769 909.627 392.834 910.292 393.164C910.956 393.494 911.457 394.062 911.687 394.745L921.287 423.707L920.333 429.769L915.899 425.384Z" fill="#BE8B87"/>
<path id="Vector_105" opacity="0.1" d="M907.208 393.842C907.924 393.625 908.7 393.689 909.367 394.019C910.034 394.35 910.537 394.92 910.766 395.605L920.367 424.567L919.646 429.11L920.344 429.811L921.298 423.749L911.642 394.787C911.413 394.105 910.912 393.537 910.247 393.207C909.583 392.877 908.809 392.811 908.095 393.025C907.494 393.212 906.975 393.585 906.62 394.086C906.809 393.99 907.005 393.908 907.208 393.842Z" fill="white"/>
<path id="Vector_106" d="M915.899 425.384L921.287 423.749L920.5 428.718L920.333 429.811L918.759 428.24L915.899 425.384Z" fill="#EFC8C4"/>
<path id="Vector_107" d="M918.759 428.24C918.853 428.126 918.97 428.032 919.103 427.964C919.181 427.917 919.271 427.892 919.363 427.892C919.456 427.892 919.546 427.917 919.624 427.964C919.699 428.051 919.763 428.148 919.812 428.25C919.886 428.368 919.985 428.468 920.104 428.543C920.223 428.618 920.358 428.667 920.5 428.686L920.333 429.747L918.759 428.24Z" fill="#727A9C"/>
<path id="Vector_108" d="M906.244 406.688C906.244 406.688 925.499 406.582 920.965 414.428C916.431 422.273 909.348 423.218 909.348 423.218L906.244 406.688Z" fill="#FFB0B1"/>
<g id="Love">
<path id="Vector_109" d="M786.486 54.5903H785.655C752.575 54.5903 723.321 71.3538 706.493 96.0904C689.665 71.3538 660.41 54.5903 627.331 54.5903H626.499C601.674 54.8169 577.945 64.417 560.47 81.3045C542.994 98.1919 533.183 121.002 533.17 144.778C533.17 174.303 546.672 216.195 573 250.667C623.162 316.352 706.493 373.819 706.493 373.819C706.493 373.819 789.823 316.363 839.974 250.667C866.313 216.195 879.805 174.303 879.805 144.778C879.791 121.004 869.982 98.1953 852.509 81.3082C835.035 64.421 811.309 54.8196 786.486 54.5903ZM774.591 255.721C770.824 255.707 767.149 254.603 764.049 252.553C760.949 250.503 758.568 247.603 757.22 244.234H737.444C736.141 244.226 734.874 243.829 733.819 243.098C732.763 242.367 731.973 241.339 731.557 240.157L725.482 222.629L706.26 286.955C705.886 288.193 705.102 289.282 704.026 290.057C702.951 290.832 701.642 291.252 700.296 291.254H699.908C698.503 291.189 697.165 290.665 696.115 289.768C695.066 288.872 694.37 287.657 694.143 286.328L674.333 172.222L659.856 239.743C659.524 241.026 658.753 242.165 657.666 242.979C656.579 243.793 655.238 244.235 653.858 244.234H626C625.165 244.268 624.332 244.139 623.55 243.857C622.768 243.574 622.053 243.143 621.45 242.589C620.847 242.035 620.367 241.37 620.039 240.633C619.711 239.897 619.541 239.105 619.541 238.304C619.541 237.504 619.711 236.712 620.039 235.975C620.367 235.239 620.847 234.574 621.45 234.02C622.053 233.466 622.768 233.035 623.55 232.752C624.332 232.47 625.165 232.341 626 232.375H648.981L669.489 141.593C669.826 140.251 670.639 139.062 671.789 138.231C672.939 137.399 674.356 136.976 675.796 137.033C677.236 137.091 678.61 137.626 679.684 138.547C680.758 139.468 681.465 140.717 681.683 142.081L701.914 258.481L719.141 200.929C719.5 199.717 720.258 198.648 721.303 197.883C722.348 197.118 723.624 196.696 724.939 196.682H725.061C726.364 196.683 727.633 197.077 728.688 197.809C729.743 198.541 730.53 199.573 730.936 200.759L741.922 232.407H756.976C758.047 229.293 759.995 226.522 762.605 224.401C765.216 222.28 768.388 220.891 771.77 220.388C775.153 219.884 778.616 220.286 781.775 221.547C784.935 222.809 787.669 224.883 789.676 227.539C791.683 230.195 792.885 233.33 793.149 236.599C793.412 239.868 792.728 243.143 791.171 246.063C789.614 248.983 787.244 251.434 784.325 253.146C781.405 254.857 778.048 255.763 774.625 255.763L774.591 255.721Z" fill="#E00D00"/>
</g>
</g>
<defs>
<filter id="filter0_d_1_2" x="0" y="0" width="1233" height="839" filterUnits="userSpaceOnUse" color-interpolation-filters="sRGB">
<feFlood flood-opacity="0" result="BackgroundImageFix"/>
<feColorMatrix in="SourceAlpha" type="matrix" values="0 0 0 0 0 0 0 0 0 0 0 0 0 0 0 0 0 0 127 0" result="hardAlpha"/>
<feOffset dy="4"/>
<feGaussianBlur stdDeviation="2"/>
<feComposite in2="hardAlpha" operator="out"/>
<feColorMatrix type="matrix" values="0 0 0 0 0 0 0 0 0 0 0 0 0 0 0 0 0 0 0.25 0"/>
<feBlend mode="normal" in2="BackgroundImageFix" result="effect1_dropShadow_1_2"/>
<feBlend mode="normal" in="SourceGraphic" in2="effect1_dropShadow_1_2" result="shape"/>
</filter>
<linearGradient id="paint0_linear_1_2" x1="994.418" y1="814.385" x2="994.418" y2="217.735" gradientUnits="userSpaceOnUse">
<stop stop-color="#808080" stop-opacity="0.25"/>
<stop offset="0.54" stop-color="#808080" stop-opacity="0.12"/>
<stop offset="1" stop-color="#808080" stop-opacity="0.1"/>
</linearGradient>
<clipPath id="clip0_1_2">
<rect width="1225" height="831" fill="white" transform="translate(4)"/>
</clipPath>
</defs>
</svg>
